<svg width="28" height="28" viewBox="0 0 28 28" fill="none" xmlns="http://www.w3.org/2000/svg">
<path d="M22.75 1.75H7C6.53587 1.75 6.09075 1.93437 5.76256 2.26256C5.43437 2.59075 5.25 3.03587 5.25 3.5V7H3.5V8.75H5.25V13.125H3.5V14.875H5.25V19.25H3.5V21H5.25V24.5C5.25 24.9641 5.43437 25.4092 5.76256 25.7374C6.09075 26.0656 6.53587 26.25 7 26.25H22.75C23.2141 26.25 23.6592 26.0656 23.9874 25.7374C24.3156 25.4092 24.5 24.9641 24.5 24.5V3.5C24.5 3.03587 24.3156 2.59075 23.9874 2.26256C23.6592 1.93437 23.2141 1.75 22.75 1.75ZM22.75 24.5H7V21H8.75V19.25H7V14.875H8.75V13.125H7V8.75H8.75V7H7V3.5H22.75V24.5Z" fill="#79B928"/>
<path d="M12.25 7H19.25V8.75H12.25V7Z" fill="#79B928"/>
<path d="M12.25 13.125H19.25V14.875H12.25V13.125Z" fill="#79B928"/>
<path d="M12.25 19.25H19.25V21H12.25V19.25Z" fill="#79B928"/>
</svg>
