<svg width="28" height="24" viewBox="0 0 28 24" fill="none" xmlns="http://www.w3.org/2000/svg">
<path d="M24.7803 2.321C24.13 1.67068 23.3579 1.15488 22.5081 0.80309C21.6584 0.451299 20.7476 0.270407 19.8279 0.270752C18.9082 0.271098 17.9976 0.452674 17.1481 0.805103C16.2986 1.15753 15.5269 1.67391 14.8771 2.32471L14.0288 3.18331L13.1876 2.32657L13.1822 2.32111C12.5321 1.67109 11.7605 1.15547 10.9112 0.803683C10.0619 0.451897 9.15165 0.270835 8.23239 0.270835C7.31313 0.270835 6.40288 0.451897 5.5536 0.803683C4.70431 1.15547 3.93264 1.67109 3.28263 2.32111L2.90474 2.699C1.59199 4.01175 0.854492 5.79222 0.854492 7.64873C0.854492 9.50524 1.59199 11.2857 2.90474 12.5985L12.8783 22.5719L14.0045 23.7519L14.0314 23.725L14.0605 23.7542L15.1158 22.6408L25.1582 12.5983C26.469 11.2845 27.2051 9.50443 27.2051 7.64857C27.2051 5.79271 26.469 4.01263 25.1582 2.69883L24.7803 2.321ZM23.9205 11.3609L14.0314 21.2502L4.1421 11.3609C3.15754 10.3763 2.60442 9.04098 2.60442 7.6486C2.60442 6.25622 3.15754 4.92087 4.1421 3.9363L4.52004 3.55841C5.50412 2.57434 6.83867 2.02126 8.23037 2.02073C9.62206 2.02021 10.957 2.57229 11.9418 3.55562L14.0251 5.67678L16.1182 3.55841C16.6057 3.0709 17.1844 2.68418 17.8214 2.42034C18.4584 2.1565 19.141 2.02071 19.8305 2.02071C20.5199 2.02071 21.2026 2.1565 21.8396 2.42034C22.4765 2.68418 23.0553 3.0709 23.5428 3.55841L23.9207 3.93625C24.9038 4.92162 25.4559 6.25671 25.4558 7.64861C25.4558 9.04052 24.9036 10.3756 23.9205 11.3609Z" fill="#79B928"/>
</svg>
