<svg width="99" height="93" viewBox="0 0 99 93" fill="none" xmlns="http://www.w3.org/2000/svg">
<path d="M66.8874 1.50304C67.8273 0.374314 67.8273 0.374314 69.0491 1.22086C69.5191 1.55007 69.989 1.83226 70.459 2.16147C73.0907 3.99565 75.7694 5.87687 78.4011 7.71105C78.4481 7.75808 78.4951 7.80511 78.5421 7.80511C79.717 8.74572 80.9859 9.59227 82.2077 10.3918C82.8187 10.9091 83.4296 11.3324 84.0875 11.7086C84.6985 12.226 85.3564 12.6963 86.0613 13.1195C88.5991 14.9537 91.1838 16.7879 93.8155 18.528C94.1915 18.9043 94.6614 19.2335 95.1784 19.4686C95.9773 20.1271 96.8232 20.6914 97.7161 21.2088C98.797 22.0553 98.797 22.0553 98.0921 23.3251C97.9041 23.4662 97.7631 23.6543 97.7161 23.8895C96.8702 24.9242 96.1183 26.0529 95.4134 27.2287C94.8494 28.0282 94.3325 28.7807 93.7685 29.5802C93.4396 30.0034 93.1106 30.3797 92.8756 30.897C91.8417 32.2139 90.9488 33.5778 90.0559 34.9416C89.9619 35.0827 89.8679 35.2238 89.8209 35.3179C88.975 36.4466 88.1761 37.5753 87.4242 38.7981C86.8603 39.4565 86.3903 40.209 85.9204 40.9615C85.4504 41.4789 85.0744 42.0902 84.7455 42.7016C83.8526 43.9715 83.0067 45.2413 82.1138 46.4641C81.2209 47.7809 80.281 49.0978 79.388 50.4146C78.9651 50.8379 78.6361 51.3552 78.3542 51.8726C77.7902 52.531 77.2733 53.2835 76.8503 54.083C74.9705 56.6697 73.1377 59.3034 71.3989 61.9841C71.0229 62.4074 70.694 62.8306 70.459 63.348C69.8011 64.1475 69.2371 64.994 68.7202 65.8876C66.8404 68.4273 65.1016 71.0139 63.3627 73.6476C63.0808 73.9298 62.8458 74.212 62.7048 74.5882C62.4698 74.8704 62.2819 75.1056 62.0469 75.3877C61.6239 75.9521 61.342 76.7987 60.778 77.0338C60.1671 77.269 59.6971 76.3284 59.0392 76.0932C57.8173 75.1526 56.5955 74.259 55.2796 73.4595C54.2927 72.754 53.3058 72.0956 52.3659 71.3431C51.708 70.8258 51.332 70.9669 51.05 71.6724C50.4861 72.3308 49.9222 72.9422 49.3112 73.6006C48.6533 74.165 48.0424 74.7293 47.3844 75.3407C46.3975 75.9991 45.4106 76.6576 44.4707 77.269C44.1418 77.4101 43.8598 77.5511 43.5308 77.6922C42.262 78.2096 40.9461 78.6799 39.6772 79.1972C38.4084 79.4794 37.0925 79.7616 35.8237 80.0438C33.2389 80.6081 30.6542 81.1725 28.0695 81.7839C26.7536 82.0661 25.4847 82.3482 24.1689 82.6304C23.37 82.6304 23.135 82.9126 23.417 83.7121C23.8869 85.029 24.2159 86.4399 24.6388 87.7567C24.8268 88.3211 24.6858 88.5092 24.1689 88.6973C22.9 89.0736 21.5842 89.4969 20.3153 89.9201C19.0464 90.2964 17.7306 90.7196 16.4617 91.0959C15.0519 91.4721 13.689 91.8484 12.3261 92.3657C11.8562 92.4127 11.4332 92.5538 11.0103 92.7419C10.1174 93.1182 9.78841 92.742 9.60043 91.8484C9.41245 90.9078 9.03649 90.0142 8.70752 89.0736C8.42555 87.7567 8.04959 86.4399 7.53265 85.2171C7.25068 83.9002 6.87472 82.6304 6.40477 81.3606C5.74684 78.7269 4.94792 76.1873 4.10201 73.6006C3.16211 70.3085 2.2692 67.0163 1.14132 63.7712C1.00034 63.1599 0.812358 62.5955 0.671373 61.9841C0.483392 61.3257 0.342407 60.6672 0.107432 60.0558C-0.127543 59.4445 0.0134422 59.2093 0.624378 59.0682C2.03423 58.692 3.39708 58.1746 4.80694 57.7514C6.1228 57.4221 7.39166 57.0459 8.66053 56.5756C10.0704 56.1523 11.4332 55.7291 12.8431 55.3058C12.8901 55.3058 12.9841 55.3058 13.0311 55.2587C13.548 55.1177 14.112 54.7884 14.5819 54.8825C15.1928 54.9766 14.8169 55.8701 15.3338 56.1994C15.7098 55.588 16.0857 54.9766 16.4617 54.3652C17.3076 53.0483 18.1535 51.7315 19.0464 50.4146C19.5164 49.8032 19.9393 49.1918 20.2683 48.5334C20.7852 47.922 21.2082 47.2636 21.5842 46.5581C22.4301 45.2883 23.276 43.9715 24.0749 42.7016C24.1219 42.6546 24.1689 42.6076 24.1219 42.5606C25.0148 41.3848 25.8137 40.115 26.5656 38.8452C26.7536 38.563 26.9886 38.2808 27.1766 37.9986C28.3984 35.9293 29.7613 34.001 31.8761 32.7312C32.957 32.2139 34.0848 31.8376 35.2127 31.5084C36.6696 31.0851 38.1264 30.6148 39.5833 30.1445C40.8991 29.8153 42.168 29.4391 43.4368 28.9688C45.1287 28.4985 46.8205 27.9811 48.5123 27.5108C48.7943 27.4168 49.0293 27.3227 49.1702 27.0405C50.8621 24.5479 52.6009 22.0083 54.2927 19.5157C54.6217 19.1865 54.9036 18.8102 55.0446 18.3869C55.7495 17.4934 56.4075 16.5998 56.9714 15.6122C58.7572 13.0255 60.543 10.4388 62.3288 7.85214C62.5638 7.52293 62.7518 7.19372 62.9868 6.91154C63.6447 5.9239 64.3496 4.98329 65.0076 3.99565C65.7595 3.10208 66.3234 2.30256 66.8874 1.50304ZM55.7026 25.1123C56.7364 24.5479 57.8173 24.2187 58.8982 23.7954C59.2742 23.7484 59.6501 23.6543 60.0731 23.6073C60.2141 23.6073 60.3551 23.5603 60.449 23.5603C60.59 23.5133 60.731 23.5133 60.825 23.4662C61.5299 23.4662 62.2349 23.4192 62.9398 23.4192C63.4097 23.4192 63.8327 23.4662 64.3026 23.4662C65.1485 23.6543 65.9945 23.7954 66.8404 23.9836C68.0622 24.4539 69.2371 24.9242 70.459 25.3945C73.0437 26.8994 75.2525 28.8277 77.0383 31.2262C77.4613 31.9787 77.9312 32.7312 78.3542 33.4837C78.5421 33.954 78.7301 34.4243 78.9181 34.8946C79.3411 36.1644 79.623 37.4342 79.811 38.7511C79.811 40.115 79.858 41.4789 79.435 42.8427C79.623 42.7957 79.717 42.7957 79.764 42.7487C80.6569 41.4789 81.5028 40.209 82.3957 38.9392C82.4427 38.9392 82.4427 38.8922 82.4427 38.8452C83.3356 37.5283 84.2285 36.2115 85.1684 34.8946C85.5444 34.4243 85.9204 33.954 86.2023 33.3896C86.8603 32.6371 87.3772 31.8376 87.8472 30.9911C89.633 28.4044 91.3718 25.8648 93.1576 23.2781C93.4866 23.043 93.2516 22.9019 93.0636 22.8078C92.0767 22.1023 91.0428 21.4439 90.0559 20.7855C89.351 20.1741 88.5521 19.6568 87.7532 19.1865C87.2832 18.7632 86.7663 18.3869 86.2023 18.1048C85.0274 17.2112 83.8526 16.3176 82.5367 15.5651C82.3957 15.4711 82.3017 15.377 82.1608 15.2829C80.9389 14.4364 79.67 13.5898 78.4481 12.7433C77.8842 12.32 77.2733 11.9438 76.7093 11.5205C76.0514 11.0502 75.4405 10.6269 74.7825 10.1566C73.3727 9.16899 71.9158 8.13432 70.506 7.14669C68.6732 5.87687 68.6732 5.87687 67.4983 7.85214C67.2163 8.13432 66.9814 8.41651 66.8874 8.79275C66.1354 9.68633 65.4775 10.674 64.8666 11.6616C63.0338 14.2012 61.201 16.7879 59.5091 19.4216C59.2742 19.6568 59.0862 19.8919 58.9452 20.2211C58.2403 21.1147 57.5824 22.0553 56.9714 23.09C56.4545 23.7014 55.9845 24.3598 55.6086 25.0653C55.5616 25.1123 55.5146 25.2063 55.5146 25.2534C55.5616 25.1593 55.6556 25.1123 55.7026 25.1123ZM41.4161 46.417C41.1811 46.7463 40.9931 47.0284 40.7581 47.3576C40.5702 47.6398 40.5232 47.828 40.8991 48.0161C41.792 48.5334 42.7319 49.0507 43.6248 49.5681C43.9068 49.9913 44.1418 49.6151 44.3298 49.474C46.6795 47.5458 49.0293 45.6175 51.379 43.6893C51.9899 43.4541 52.0369 43.0779 51.708 42.5135C50.8151 41.0085 50.2981 39.3625 49.9692 37.6224C49.7342 36.2115 49.8282 34.7535 49.6872 33.2956C48.5593 35.1298 47.4784 36.9169 46.3505 38.7511C45.4576 39.9739 44.6587 41.2907 43.9068 42.6076C43.7188 42.8427 43.4838 43.0309 43.4368 43.3601C42.7319 44.3477 42.074 45.3824 41.4161 46.417ZM39.7712 74.8704C40.6641 74.6353 41.5101 74.259 42.309 73.7887C42.8259 73.6476 43.2489 73.3654 43.6248 72.9892C45.1287 72.1426 46.3505 71.0139 47.4314 69.6971C47.4784 69.6971 47.5254 69.65 47.5254 69.556C48.6063 68.3802 49.5932 67.1104 50.5331 65.7936C50.9091 65.3233 51.238 64.9 51.614 64.4297C52.3189 63.6302 53.0238 62.8306 53.5878 61.9371C56.7364 58.1276 59.7911 54.2241 62.7988 50.3206C63.0338 50.1795 63.1278 49.9914 63.1748 49.7092C64.1147 48.3453 64.1617 46.8873 63.3157 45.4764C62.3758 43.9715 61.013 43.1249 59.1332 43.3601C58.5692 43.313 58.0993 43.5952 57.5824 43.8304C56.8774 44.2066 56.4545 44.9121 55.8435 45.3353C54.2457 46.417 52.7889 47.6398 51.379 48.9096C50.7681 49.3329 50.1571 49.7562 49.6402 50.3206C48.8883 50.8379 48.1833 51.4023 47.5254 52.0607C46.6325 52.7191 45.7396 53.3775 44.9407 54.1771C44.5647 54.4122 44.1418 54.7414 43.6718 54.3181C43.4838 54.1771 43.3429 53.9889 43.0609 53.9889C42.027 53.2364 40.8991 52.6251 39.7712 52.0137C38.4554 51.2141 37.1395 50.3206 35.7297 49.6151C35.0247 49.2389 35.0717 48.9567 35.4477 48.3453C36.6696 46.4641 37.8444 44.5358 39.0193 42.6546C39.3953 42.1843 39.7242 41.667 40.0062 41.1026C40.5702 40.3501 41.0871 39.5976 41.5101 38.7511C42.7789 36.8228 44.0478 34.8476 45.3167 32.8253C44.5647 32.6371 44.0948 32.9193 43.6248 33.1074C41.0401 33.7659 38.4554 34.5184 35.8707 35.4119C34.3668 35.6001 33.1449 36.3525 32.299 37.5753C31.1711 39.1744 30.1373 40.9145 29.0564 42.5606C28.6804 42.9838 28.3514 43.5012 28.1165 44.0185C27.5055 44.771 26.9886 45.5705 26.5656 46.417C24.8268 48.9567 23.135 51.5434 21.5372 54.1771C21.0202 54.8355 20.5503 55.5409 20.1743 56.2934C19.7044 56.8108 19.3284 57.4221 19.0464 58.0335C18.3415 58.5979 18.3415 59.8207 17.2136 60.0088C16.6027 60.1029 16.5557 60.4321 16.7437 60.9494C16.8847 61.2786 16.9786 61.6078 17.1196 61.9371C18.0595 65.3703 19.0464 68.8035 20.1743 72.1897C20.2213 72.66 20.3153 73.1303 20.5503 73.5536C21.0202 75.1996 21.4902 76.8927 21.9601 78.5388C22.0541 78.821 22.1951 78.9621 22.5241 78.868C24.2159 78.4447 25.8607 78.0685 27.5525 77.6452C27.7405 77.5982 27.9285 77.5982 28.1165 77.5511C29.4323 77.269 30.7482 77.0808 31.9701 76.6576C33.2859 76.5165 34.5548 76.1873 35.8237 75.811C37.2335 75.5759 38.5494 75.3877 39.7712 74.8704ZM55.1386 30.85C54.2457 32.0258 53.8228 33.3426 53.7288 34.8005C53.5878 36.6818 54.1047 38.4689 54.9036 40.162C55.0446 40.4442 55.1386 40.7264 55.6086 40.4442C56.6894 39.7387 57.9113 39.5036 59.1332 39.3155C60.449 39.3625 61.7649 39.5506 62.9868 40.0209C65.2425 41.1967 66.7464 43.219 68.6262 45.0061C67.4513 45.1002 67.4513 45.1002 67.5923 46.2289C67.6393 46.5581 67.6863 46.9344 67.6863 47.2636C67.6863 47.6398 67.7803 47.875 68.2502 47.828C69.7071 47.6869 71.1639 47.4047 72.3858 46.4641C73.3727 45.9467 74.1246 45.1472 74.6415 44.1596C76.4744 41.2907 76.2394 38.3748 74.8295 35.4119C74.8295 35.1768 74.7355 34.9887 74.5946 34.8476C72.9027 31.6495 70.318 29.4861 66.8874 28.2633C65.6655 27.699 64.3496 27.4638 63.0338 27.5108C61.7179 27.3697 60.4021 27.5108 59.1802 28.0752C57.4414 28.5455 56.1255 29.4391 55.1386 30.85ZM71.8218 54.1771C72.8087 52.8132 73.7956 51.4963 74.5476 49.9443C73.2787 50.5557 72.0098 50.979 70.741 51.4493C69.4721 51.6374 68.1562 51.8726 66.8874 51.8726C66.0415 52.3429 65.7125 53.2364 65.1486 53.9419C61.9999 57.8925 58.8982 61.843 55.7495 65.7936C55.6086 65.9817 55.4676 66.1698 55.3266 66.3579C54.1987 67.6277 54.1987 67.6277 55.3266 68.2862C55.9375 68.8035 56.5485 69.2738 57.2534 69.65C58.0053 70.2144 58.7572 70.7317 59.5091 71.2961C59.8381 71.5313 59.9791 71.5783 60.2611 71.202C62.3758 68.098 64.4906 64.994 66.6054 61.89C66.7934 61.7489 66.9344 61.5608 66.9814 61.3257C67.8273 60.291 68.5792 59.1623 69.2841 58.0335C69.8481 57.3281 70.412 56.5756 70.8819 55.7291C71.1639 55.3058 71.4929 54.7414 71.8218 54.1771ZM16.6027 86.675C17.4956 86.628 18.2945 86.1577 19.1874 86.0166C20.0333 85.8755 20.2213 85.5463 19.7514 84.8409C19.3754 83.6651 19.0464 82.4893 18.6705 81.2665C17.9655 78.6799 17.2136 76.0932 16.3677 73.5065C16.0857 72.1897 15.6628 70.9199 15.1928 69.65C14.9109 68.3332 14.5349 67.0634 14.018 65.7936C13.736 64.8059 13.548 63.8183 13.219 62.8306C12.8431 61.796 12.9371 60.1499 12.0912 59.8207C11.2922 59.4915 10.0234 60.291 8.9425 60.6202C8.8955 60.6202 8.84851 60.7143 8.80151 60.7143C7.67363 60.9494 6.59275 61.2786 5.51186 61.7019C4.99491 61.7019 4.94792 61.9371 5.08891 62.3603C5.46487 63.4891 5.79383 64.6178 6.1228 65.7465C6.54575 67.1104 6.96871 68.5213 7.39166 69.8852C8.14358 72.3778 8.84851 74.8704 9.60043 77.363C10.4933 80.5141 11.3862 83.7121 12.4671 86.8632C12.6081 87.2394 12.3261 87.9919 13.1251 87.8038C14.2999 87.4745 15.5218 87.2394 16.6027 86.675Z" fill="#EF4F95"/>
</svg>
