<svg width="105" height="66" viewBox="0 0 105 66" fill="none" xmlns="http://www.w3.org/2000/svg">
<path d="M58.4618 64.7817C57.7099 64.8758 56.958 64.9699 56.2061 65.0169C55.1722 64.8288 54.1853 64.5936 53.1514 64.4055C52.7284 64.2174 52.3525 64.0292 51.9295 63.7941C51.7885 63.7 51.6475 63.653 51.5535 63.5589C51.0836 63.0886 50.6136 62.5713 50.1437 62.101C50.0027 61.5837 49.5328 61.2545 49.4858 60.6901C48.5929 61.2074 47.8409 61.6777 47.089 62.101C46.1021 62.3832 45.0682 62.6654 44.0343 62.8065C43.4234 62.8065 42.8125 62.7594 42.2015 62.7594C42.1075 62.6183 41.9666 62.6183 41.7786 62.6183C41.5906 62.5713 41.4026 62.5713 41.1676 62.5243C39.8988 62.148 38.8179 61.4896 37.925 60.502C37.69 60.0787 37.455 59.7025 37.3141 59.2792C37.2201 58.997 37.1731 58.9029 36.8441 59.0911C35.1053 59.9376 33.2255 60.3609 31.3457 60.7371C30.5468 60.8312 29.7479 60.9252 28.9019 61.0193C27.8211 61.0663 26.7402 61.1604 25.6593 61.2074C25.2363 61.2074 24.8604 61.2074 24.4374 61.2074C24.0145 61.2074 23.5915 61.1604 23.2155 61.3485C23.0276 61.3485 22.8396 61.3955 22.6046 61.3955C21.5707 61.3955 20.5368 61.3015 19.5499 61.5366C18.798 61.5837 18.0461 61.5837 17.3412 61.6307C15.6963 61.7248 14.0985 61.8659 12.4537 61.9599C11.7958 61.9599 11.0908 62.007 10.4329 62.007C9.39901 62.054 8.41211 62.148 7.37822 62.1951C7.09625 62.1951 6.81428 62.1951 6.5793 62.1951C6.15635 62.1951 5.73339 62.148 5.35743 62.3362C5.02847 62.3362 4.6995 62.3832 4.37054 62.3832C3.28965 62.2891 2.16177 62.5713 1.12788 62.148C1.03389 62.101 0.986896 62.0069 0.892906 61.9599C0.704925 61.7718 0.516945 61.5366 0.328965 61.3485C0.328965 61.3015 0.328965 61.2074 0.28197 61.1604C0.328965 61.0193 0.28197 60.8782 0.140985 60.8312C0.140985 60.7842 0.140985 60.6901 0.140985 60.6431C0.140985 60.596 0.0939901 60.596 0.0939901 60.549C0.28197 59.3262 0.798916 58.4326 2.20877 58.3386C3.28965 58.2445 4.41753 58.1975 5.49842 58.1505C7.23723 58.0564 8.97605 57.9153 10.6679 57.7742C11.3728 57.7742 12.1247 57.7272 12.8296 57.7272C14.4275 57.6331 15.9783 57.492 17.5761 57.398C18.2341 57.398 18.939 57.3509 19.5969 57.3509C20.6308 57.445 21.6177 57.2098 22.6516 57.1628C22.9806 57.1628 23.3565 57.1628 23.6855 57.1628C24.0145 57.1628 24.3904 57.2569 24.7194 57.0217C25.0483 57.0217 25.3773 57.0217 25.7063 56.9747C26.7402 56.9277 27.7741 57.1158 28.761 56.7866C29.1839 56.7395 29.5599 56.7395 29.9828 56.6925C30.1238 56.7395 30.3118 56.6925 30.4058 56.5514C30.6878 56.5514 30.9227 56.5044 31.2047 56.5044C32.4736 56.2222 33.7424 56.0341 34.8703 55.3757C35.3873 55.2816 35.8572 55.0465 36.2802 54.7172C36.9851 54.4351 37.596 54.0588 38.113 53.5415C39.0059 52.9301 39.8048 52.2717 40.5567 51.4721C40.7447 51.284 40.9327 51.0489 41.1676 50.8607C41.9666 50.2023 42.7185 49.4498 43.3764 48.6033C43.7524 48.3211 44.0813 48.0389 44.2693 47.6157C44.9742 47.0513 45.6792 46.4869 46.2901 45.7815C46.6661 45.4523 47.089 45.076 47.465 44.7468C48.3579 44.4646 49.2978 44.2295 50.0967 43.7592C52.3055 43.0067 54.3732 42.0661 56.394 40.9373C56.723 40.8903 56.958 40.7022 57.193 40.5141C57.2869 40.467 57.3809 40.42 57.4749 40.326C57.9449 40.2319 58.2738 39.9497 58.6028 39.6675C58.9788 39.4324 59.3547 39.1502 59.7777 38.915C61.4695 37.8804 62.8794 36.5635 63.7253 34.7764C63.9132 34.5412 64.0542 34.3061 64.0542 34.0239C64.2892 33.7887 64.2892 33.5065 64.3362 33.2244C64.7592 31.6724 64.7122 30.2144 63.6783 28.8976C63.4903 28.4273 63.2083 28.0981 62.7384 27.9099C61.6105 27.1104 60.3886 27.4396 59.1667 27.6748C59.0258 27.7218 58.9318 27.7218 58.7908 27.7688C58.6028 27.7218 58.4618 27.7688 58.3678 27.9099C58.2268 27.9099 58.0859 27.957 57.9449 27.957C57.7569 27.9099 57.6159 27.957 57.5219 28.0981C57.052 28.1451 56.676 28.3332 56.3 28.5213C54.0913 29.2738 52.0705 30.4966 50.0027 31.4842C49.7677 31.4842 49.5798 31.5783 49.3918 31.7664C49.2978 31.8134 49.2038 31.8605 49.1098 31.9545C48.3579 32.0956 47.747 32.5189 47.042 32.8011C46.948 32.8481 46.854 32.8952 46.7601 32.9892C46.4311 32.9892 46.1961 33.1773 45.9611 33.3654C45.3032 33.5536 44.6923 33.8358 44.0813 34.212C41.8726 35.1526 39.7108 36.1402 37.549 37.2219C37.1731 37.269 36.8441 37.4571 36.5621 37.6922C36.4681 37.7393 36.3742 37.7863 36.2802 37.8804C35.7162 37.9274 35.2463 38.3036 34.7293 38.5388C34.3064 38.7269 33.9304 38.915 33.5075 39.1032C32.9435 39.3383 32.4266 39.5264 31.8626 39.7616C30.5468 39.8556 29.4659 39.3383 29.2779 38.5388C28.9489 37.316 29.4659 36.3754 30.7817 35.717C31.2047 35.5288 31.6277 35.2937 32.0036 35.1056C33.0845 34.9175 33.5075 34.3061 33.2725 33.2244C33.2725 32.1897 33.2725 31.2021 33.2725 30.1674C33.2725 29.1327 33.2725 28.1451 33.2725 27.1104C33.2725 26.0757 33.2725 25.0881 33.2725 24.0534C33.2725 23.0188 33.2725 22.0311 33.2725 20.9965C33.2725 19.9618 33.2725 18.9742 33.2725 17.9395C33.2725 16.9048 33.2725 15.9172 33.2725 14.8825C33.2725 13.8949 33.2725 12.8602 33.2725 11.8726C33.2725 11.0731 33.3195 10.2735 33.3195 9.427C33.3195 9.14481 33.4135 8.76858 32.8965 8.81561C32.8025 8.67452 32.6615 8.62749 32.4736 8.62749C32.3326 8.62749 32.1916 8.58046 32.0976 8.58046C30.4998 8.15718 29.3719 9.05076 28.291 9.99137C27.5861 10.5087 26.9751 11.026 26.4112 11.6374C26.0352 12.0137 25.6123 12.3429 25.2363 12.7191C24.3904 13.3775 23.5915 14.036 22.7456 14.6944C22.6516 14.7885 22.5576 14.8355 22.4636 14.9296C20.4428 16.4345 18.4221 17.9395 16.4483 19.4445C15.7433 19.9618 14.9444 20.338 14.3805 20.9965C13.9105 21.1376 13.5816 21.5138 13.2056 21.796C12.2187 22.5014 11.2318 23.2069 10.2449 23.9124C8.13014 25.4173 6.01536 26.9693 3.90059 28.4743C3.10167 29.0387 2.25576 29.3208 1.26887 29.0857C0.516945 28.6154 0.0939901 27.957 0 27.1104C0.140985 26.2639 0.65793 25.6525 1.22187 25.1351C1.78581 24.853 2.25576 24.5237 2.72571 24.1005C3.24266 23.7242 3.7596 23.395 4.27655 23.0188C5.16945 22.3603 6.10935 21.7019 7.00226 21.0435C7.14324 21.0435 7.23723 20.9494 7.33122 20.8083C9.63398 19.3034 11.7958 17.6573 14.0045 16.0112C14.3335 15.8231 14.6624 15.682 14.8504 15.3528C15.5084 14.8825 16.1663 14.4122 16.8242 13.9419C17.5761 13.4716 18.2811 12.9543 18.939 12.2959C19.362 12.1077 19.6909 11.8256 20.0199 11.4493C20.9598 10.8849 21.8527 10.2265 22.6046 9.427C22.8396 9.23887 23.0276 9.00373 23.2625 8.81561C23.5445 8.62749 23.8735 8.39233 24.0615 8.06312C24.2964 7.96906 24.4844 7.78094 24.6254 7.59281C24.9544 7.2636 25.3303 6.98142 25.6593 6.65221C25.9413 6.46409 26.2232 6.22894 26.5052 6.04082C27.2571 5.61755 27.962 5.19427 28.714 4.77099C29.8418 4.48881 30.9697 4.25366 32.1446 4.34772C32.6615 4.44178 33.2255 4.53585 33.7424 4.62991C34.4474 5.10021 34.9173 5.00614 35.3873 4.25366C35.7162 3.73632 36.1862 3.26602 36.6091 2.79571C37.0321 2.4665 37.408 2.1373 37.831 1.80809C38.7709 1.14966 39.8518 0.867476 40.8857 0.350142C41.0267 0.350142 41.1676 0.350142 41.3086 0.350142C41.4496 0.397172 41.6376 0.397164 41.7316 0.209042C42.4835 0.162012 43.1884 0.162021 43.9404 0.11499C44.9742 0.11499 45.9611 0.11499 46.995 0.11499C48.0289 0.11499 49.0158 0.11499 50.0497 0.11499C51.0836 0.11499 52.0705 0.11499 53.1044 0.11499C54.1383 0.11499 55.1252 0.11499 56.1591 0.11499C57.193 0.11499 58.1798 0.11499 59.2137 0.11499C60.2476 0.11499 61.2345 0.11499 62.2684 0.11499C63.3023 0.11499 64.2892 0.11499 65.3231 0.11499C66.357 0.11499 67.3439 0.11499 68.3778 0.11499C69.4117 0.11499 70.3986 0.11499 71.4324 0.11499C72.4663 0.11499 73.4532 0.11499 74.4871 0.11499C75.521 0.11499 76.5079 0.11499 77.5418 0.11499C78.5757 0.11499 79.5626 0.11499 80.5965 0.11499C81.6304 0.11499 82.6173 0.11499 83.6512 0.11499C84.685 0.11499 85.6719 0.11499 86.7058 0.11499C87.7397 0.11499 88.7266 0.11499 89.7605 0.11499C90.7944 0.11499 91.7813 0.11499 92.8152 0.11499C93.8021 0.162021 94.836 0.209048 95.8229 0.303109C96.7158 0.350139 97.5147 0.867473 98.4076 1.00856C100.616 2.23135 102.402 3.92445 103.483 6.22894C103.718 7.12251 103.953 7.96906 104.141 8.86264C104.141 9.89731 104.188 10.8849 104.188 11.9196C104.188 12.9543 104.188 13.9419 104.188 14.9766C104.188 16.0113 104.188 16.9989 104.188 18.0336C104.188 19.0682 104.188 20.0559 104.188 21.0905C104.188 22.1252 104.188 23.1128 104.188 24.1475C104.188 25.1822 104.188 26.1698 104.188 27.2045C104.188 28.2391 104.188 29.2268 104.188 30.2615C104.188 31.2961 104.188 32.2838 104.188 33.3184C104.188 34.3531 104.188 35.3407 104.188 36.3754C104.188 37.4101 104.188 38.3977 104.188 39.4324C104.141 40.42 104.094 41.4547 104.047 42.4423C104 42.7245 103.953 43.0067 103.953 43.2889C103.812 43.3829 103.765 43.524 103.812 43.7121C103.718 44.0413 103.483 44.2765 103.577 44.6527C103.53 44.7468 103.483 44.8409 103.389 44.9349C103.342 44.982 103.342 45.029 103.342 45.076C102.261 47.0513 100.71 48.5563 98.6426 49.5439C98.3136 49.638 97.9846 49.732 97.6557 49.8261C97.4677 49.779 97.3267 49.8261 97.2327 49.9672C96.7628 49.9672 96.2928 50.0142 95.8229 50.2023C94.789 50.2023 93.8021 50.2023 92.7682 50.2494C91.7343 50.2494 90.7474 50.2494 89.7135 50.2494C88.6796 50.2494 87.6927 50.2494 86.6588 50.2494C85.6249 50.2494 84.6381 50.2494 83.6042 50.2494C82.5703 50.2494 81.5834 50.2494 80.5495 50.2494C79.5156 50.2494 78.5287 50.2494 77.4948 50.2494C76.3669 50.1083 77.1188 51.0489 76.8369 51.3781C76.6489 52.3187 76.4609 53.3063 76.2259 54.2469C75.756 55.3757 75.286 56.5514 74.8161 57.6802C74.5811 58.0094 74.2521 58.2445 74.1582 58.6678C73.6412 59.2792 73.0773 59.8435 72.5603 60.4549C72.1844 60.7371 71.7614 61.0193 71.3855 61.3015C70.4456 61.8659 69.4117 62.1951 68.3308 62.5243C68.0488 62.5243 67.7668 62.5243 67.5319 62.5713C67.0619 62.5713 66.592 62.5713 66.122 62.5713C65.84 62.5243 65.6051 62.5243 65.3231 62.4773C65.2291 62.4302 65.1351 62.3832 65.0881 62.3362C63.7253 61.4896 62.7854 62.148 61.7985 63.0886C60.9056 63.8882 59.6837 64.3585 58.4618 64.7817ZM67.1559 26.3579C67.2969 26.546 67.4379 26.7812 67.5789 26.9693C67.5789 27.0164 67.6259 27.1104 67.6259 27.1574C67.9548 27.9099 68.2838 28.6154 68.6127 29.3679C68.6127 29.509 68.6127 29.6501 68.6597 29.7912C68.9417 31.061 68.8477 32.3778 68.6597 33.6476C68.5657 34.0709 68.5188 34.4472 68.4248 34.8704C68.1428 35.2937 67.9548 35.811 67.8608 36.2813C67.2499 37.2219 66.639 38.1626 66.028 39.1032C65.6051 39.4324 65.2761 39.8556 64.9941 40.326C64.2422 40.9373 63.5373 41.5487 62.7854 42.1601C62.4564 42.3012 62.1744 42.4893 61.8925 42.7715C61.0935 43.2418 60.3416 43.7121 59.5427 44.1824C58.5088 44.6998 57.5219 45.1701 56.488 45.6874C56.723 45.8285 56.864 45.8755 57.052 45.8755C58.8378 45.8755 60.6236 45.8285 62.4094 45.8285C63.4433 45.9226 64.4302 45.9226 65.4641 45.8285C66.498 45.8285 67.4849 45.8285 68.5188 45.8285C69.5526 45.9226 70.5395 45.9226 71.5734 45.8285C72.6073 45.8285 73.5942 45.8285 74.6281 45.8285C75.662 45.9226 76.6489 45.9226 77.6828 45.8285C78.7167 45.8285 79.7036 45.8285 80.7375 45.8285C81.7714 45.9226 82.7582 45.9226 83.7921 45.8285C84.826 45.8285 85.8129 45.8285 86.8468 45.8285C87.8807 45.9226 88.8676 45.9226 89.9015 45.8285C90.9354 45.8285 91.9223 45.8285 92.9562 45.8285C93.9901 45.9696 94.977 45.8755 96.0108 45.7815C96.1518 45.8285 96.3398 45.8285 96.4338 45.6874C96.5748 45.6404 96.6688 45.6404 96.8098 45.5933C97.0917 45.6404 97.3267 45.4523 97.5147 45.2171H97.5617L97.6087 45.1701C97.7027 45.123 97.7967 45.076 97.8906 45.029C98.1256 44.9349 98.3136 44.7938 98.4546 44.5587C98.7366 44.4176 98.9245 44.2295 99.0655 43.9473C99.6295 43.3829 99.8644 42.6775 100.052 41.925C100.052 41.6428 100.099 41.3606 100.099 41.1255C100.099 33.8828 100.146 26.5931 100.146 19.3504C100.146 18.692 99.7704 18.8801 99.3945 18.8801C86.7058 18.8801 74.0172 18.8801 61.3285 18.8801C53.8093 18.8801 46.2901 18.8801 38.7709 18.8801C38.254 18.8801 37.784 18.8331 37.784 19.6326C37.831 23.9594 37.784 28.2862 37.784 32.707C40.1338 31.5783 42.4835 30.6377 44.6923 29.4149H44.7863L44.8333 29.3679C45.1152 29.3679 45.3502 29.1798 45.5852 28.9916C46.1491 28.8976 46.6191 28.6154 47.042 28.3332C47.9349 28.004 48.7808 27.6748 49.5798 27.1574H49.6268L49.6737 27.1104C49.7677 27.0634 49.8617 27.0164 49.9557 26.9223H50.0027L50.0497 26.8753C50.1437 26.8282 50.2377 26.7812 50.3317 26.7342C51.4596 26.1698 52.5874 25.6525 53.7153 25.0881C54.4202 24.853 55.1722 24.6648 55.8301 24.2416C56.2531 24.1005 56.629 23.9594 57.052 23.8653C57.4279 23.9124 57.7099 23.7242 58.0389 23.6302C58.1798 23.6772 58.3208 23.6302 58.3678 23.4891C58.6968 23.442 59.0728 23.4421 59.4017 23.395C60.9056 23.1599 62.4094 23.2069 63.8662 23.6302C64.3832 23.9124 64.9471 24.1945 65.4641 24.4767C65.6521 24.6178 65.887 24.8059 66.075 24.947C66.31 25.1822 66.592 25.4644 66.8269 25.6995C66.8739 25.9347 67.0149 26.1228 67.1559 26.3579ZM72.4663 50.0612C72.1374 50.0612 71.7614 50.0612 71.4324 50.0612C70.3986 50.0612 69.4117 50.0612 68.3778 50.0612C67.5789 50.0612 66.7329 50.0612 65.934 50.0612C65.4171 50.0142 65.6521 50.3904 65.5581 50.6256C65.5581 50.9078 65.5111 51.19 65.5111 51.4251C65.2291 52.4128 65.0881 53.4474 65.1351 54.4821C64.9941 55.2346 65.0411 55.9871 65.1351 56.7395C65.0881 56.8806 65.0881 57.0688 65.2761 57.1628C65.3231 57.3039 65.3231 57.398 65.3701 57.5391C65.5111 57.9153 65.793 58.0564 66.169 58.1975C67.5789 58.5737 69.4117 57.8683 70.5395 56.4103C71.7614 54.8583 72.2784 52.9771 72.6073 51.0489C72.6543 50.7667 72.6543 50.5315 72.7013 50.2494C72.7483 50.0142 72.5603 50.1083 72.4663 50.0612ZM99.8174 8.86264C99.6765 8.06312 99.3945 7.35766 98.8305 6.79329C98.7836 6.60517 98.6896 6.46409 98.5016 6.41706C98.4076 6.1819 98.2666 5.99378 98.0316 5.89972C98.0316 5.85269 97.9846 5.80566 97.8906 5.85269C97.1387 5.05317 96.1988 4.67693 95.1649 4.48881C94.366 4.39475 93.5201 4.39474 92.7212 4.44177C91.6873 4.44177 90.7004 4.44177 89.6665 4.44177C88.6326 4.44177 87.6457 4.44177 86.6118 4.44177C85.5779 4.44177 84.5911 4.44177 83.5572 4.44177C82.5233 4.44177 81.5364 4.44177 80.5025 4.44177C79.4686 4.44177 78.4817 4.44177 77.4478 4.44177C76.4139 4.44177 75.427 4.44177 74.3931 4.44177C73.3592 4.44177 72.3723 4.44177 71.3385 4.44177C70.3046 4.44177 69.3177 4.44177 68.2838 4.44177C67.2499 4.44177 66.263 4.44177 65.2291 4.44177C64.1952 4.44177 63.2083 4.44177 62.1744 4.44177C61.1405 4.44177 60.1536 4.44177 59.1197 4.44177C58.0859 4.44177 57.099 4.44177 56.0651 4.44177C55.0312 4.44177 54.0443 4.44177 53.0104 4.44177C51.9765 4.44177 50.9896 4.44177 49.9557 4.44177C48.9218 4.44177 47.9349 4.44177 46.901 4.44177C45.8671 4.44177 44.8803 4.44177 43.8464 4.44177C40.7447 4.30068 38.4889 5.85269 37.643 8.81561C37.596 8.90967 37.596 9.00373 37.549 9.09779C37.549 9.28591 37.502 9.47403 37.502 9.70918C37.502 9.99136 37.0321 10.4617 37.737 10.5557C38.7709 10.6498 39.7578 10.6498 40.7917 10.5557C41.8256 10.6498 42.8125 10.6498 43.8464 10.5557C44.8803 10.6498 45.8671 10.6498 46.901 10.5557C47.9349 10.6498 48.9218 10.6498 49.9557 10.5557C50.9896 10.6498 51.9765 10.6498 53.0104 10.5557C54.0443 10.6498 55.0312 10.6498 56.0651 10.5557C57.099 10.6498 58.0859 10.6498 59.1197 10.5557C60.1536 10.6498 61.1405 10.6498 62.1744 10.5557C63.2083 10.6498 64.1952 10.6498 65.2291 10.5557C66.263 10.6498 67.2499 10.6498 68.2838 10.5557C69.3177 10.6498 70.3046 10.6498 71.3385 10.5557C72.3723 10.6498 73.3592 10.6498 74.3931 10.5557C75.427 10.6498 76.4139 10.6498 77.4478 10.5557C78.4817 10.6498 79.4686 10.6498 80.5025 10.5557C81.5364 10.6498 82.5233 10.6498 83.5572 10.5557C84.5911 10.6498 85.5779 10.6498 86.6118 10.5557C87.6457 10.6498 88.6326 10.6498 89.6665 10.5557C90.7004 10.6498 91.6873 10.6498 92.7212 10.5557C93.7551 10.6498 94.742 10.6498 95.7759 10.5557C96.8098 10.5557 97.7967 10.5557 98.8305 10.5557C99.1125 10.5557 99.3475 10.5557 99.6295 10.5557C99.8174 10.6028 99.8644 10.5087 99.8644 10.3676C100.005 9.80324 99.8174 9.33294 99.8174 8.86264ZM61.3285 50.6726C61.4225 50.3904 61.7985 50.0142 61.0935 50.0612C60.4826 50.0612 59.8717 50.0612 59.2607 50.0612C58.2268 50.0612 57.2399 50.0612 56.2061 50.0612C55.4071 50.0612 54.5612 50.0612 53.7623 50.0612C53.6213 50.0142 53.5743 50.1083 53.5743 50.2494C53.5743 50.6726 53.5743 51.0489 53.5273 51.4721C53.2924 52.4598 53.1044 53.4944 53.1514 54.5291C53.1514 54.6702 53.1044 54.8113 53.1044 54.9054C52.9164 55.0935 52.9634 55.3286 52.9634 55.5168C52.9634 55.846 52.9164 56.1752 52.9164 56.5044C52.4935 59.044 53.6683 60.596 56.2061 60.7371C56.488 60.7371 56.77 60.7371 57.005 60.7371C57.146 60.7842 57.3339 60.7842 57.4279 60.596C58.1329 60.4549 58.6968 60.0787 59.2607 59.6084C59.6367 59.4203 59.9657 59.1851 60.1536 58.8089C60.5296 58.1975 61.4695 57.8212 60.9056 56.8336C60.9056 56.0341 60.8586 55.2346 60.8586 54.4351C60.9995 53.4004 61.0935 52.4128 61.2345 51.3781C61.2815 51.19 61.2815 50.9548 61.3285 50.6726ZM44.0343 58.5737C44.8803 58.6208 45.6322 58.3386 46.2901 57.7742C46.807 57.5861 47.23 57.2099 47.559 56.7866C47.9349 56.5044 48.2639 56.1752 48.4989 55.7989C48.8748 55.6578 48.8278 55.2816 48.8748 54.9524C48.8748 54.8113 48.8748 54.6702 48.8748 54.5291C49.0158 53.4944 49.1568 52.5068 49.2978 51.4721C49.3448 51.0959 49.3448 50.6726 49.3918 50.2964C49.5328 49.9672 49.2508 50.1083 49.1568 50.1083C48.8278 50.1083 48.4519 50.1083 48.1229 50.1083C47.9819 50.0612 47.8879 50.1553 47.8409 50.2494C45.6792 52.2717 43.6584 54.5291 41.4026 56.5044C40.8857 57.1628 41.1207 58.1034 41.9196 58.3856C42.5305 58.6208 43.2824 58.7148 44.0343 58.5737Z" fill="#EF4F95"/>
</svg>
