<svg width="89" height="76" viewBox="0 0 89 76" fill="none" xmlns="http://www.w3.org/2000/svg">
<path d="M0.422956 70.6429C0.469951 69.8904 0.469951 69.1849 0.422956 68.4325C0.469951 67.68 0.469951 66.9745 0.422956 66.222C0.469951 65.4695 0.469951 64.7641 0.422956 64.0116C0.469951 63.2591 0.469951 62.5536 0.422956 61.8012C0.469951 61.0487 0.469951 60.3432 0.422956 59.5908C0.469951 58.8383 0.469951 58.1328 0.422956 57.3803C0.469951 56.6278 0.469951 55.9224 0.422956 55.1699C0.469951 54.4174 0.469951 53.7119 0.422956 52.9595C0.469951 52.207 0.469951 51.5015 0.422956 50.749C0.469951 49.9965 0.469951 49.2911 0.422956 48.5386C0.469951 47.7861 0.469951 47.0807 0.422956 46.3282C0.469951 45.5757 0.469951 44.8702 0.422956 44.1178C0.469951 43.3653 0.469951 42.6598 0.422956 41.9073C0.469951 41.1548 0.469951 40.4494 0.422956 39.6969C0.469951 38.9444 0.469951 38.239 0.422956 37.4865C0.469951 36.734 0.469951 36.0285 0.422956 35.276C0.469951 34.5236 0.469951 33.8181 0.422956 33.0656C0.469951 32.3131 0.469951 31.6077 0.422956 30.8552C0.516946 30.1027 0.328965 29.3502 0.704925 28.6447C0.9399 28.3155 1.26887 28.0804 1.59783 27.8453C2.34975 27.422 3.05468 26.9517 3.7596 26.4814H3.8066V26.4343C5.31044 25.5408 6.76728 24.6002 8.22413 23.6125C9.63398 22.7189 11.0908 21.8253 12.5007 20.8847C12.5477 20.8377 12.5947 20.7907 12.5947 20.6966C12.8766 20.5555 13.2056 20.4615 13.2056 20.0382C13.1586 18.4862 13.1586 16.9342 13.1116 15.4292C13.1116 14.7708 13.1116 14.1124 13.1116 13.4539C13.2526 12.6074 13.4876 11.8079 13.9105 11.0554C14.1925 10.6792 14.4745 10.35 14.7564 9.97371C15.2734 9.55043 15.8373 9.17418 16.4483 8.84497C16.6362 8.79794 16.7772 8.70386 16.9652 8.65683C17.6701 8.46871 18.4221 8.42169 19.127 8.37466C19.8789 8.37466 20.5838 8.37466 21.3357 8.37466C22.0877 8.42169 22.7926 8.42171 23.5445 8.32764C24.2964 8.37468 25.0014 8.37466 25.7533 8.2806C26.5052 8.32763 27.2101 8.32764 27.962 8.23358C28.714 8.28061 29.4189 8.28061 30.1708 8.23358C30.4998 8.23358 30.8757 8.28061 31.2047 8.23358C31.5807 8.18655 32.0506 8.37468 32.3796 8.09249C33.1315 7.66922 33.8834 7.1989 34.5883 6.63453C35.3403 6.21126 36.0452 5.788 36.7501 5.27067C37.2201 5.03552 37.69 4.75331 38.113 4.4241C38.4419 4.28301 38.7239 4.09491 38.9589 3.85976C40.4627 2.96618 41.9196 2.02557 43.3764 1.03794C44.0813 0.614663 44.7863 0.56761 45.5382 0.896823C46.2431 1.36713 46.948 1.83744 47.653 2.26072C48.4049 2.73102 49.1568 3.20131 49.9087 3.71865C50.2377 4.00083 50.6136 4.23598 50.9896 4.4241C51.3186 4.70628 51.6945 4.94144 52.0705 5.12956C52.7284 5.55283 53.4333 5.97613 54.0913 6.44643C54.2323 6.58752 54.3733 6.68156 54.6082 6.77562C55.2192 7.19889 55.7831 7.62217 56.488 7.95138C57.2399 7.99841 57.9449 7.99841 58.6968 7.95138C59.4487 7.99841 60.1536 7.99841 60.9056 7.95138C61.6575 7.95138 62.3624 7.99842 63.1143 7.90436C63.8662 7.99842 64.5712 7.95139 65.3231 7.90436C66.075 7.90436 66.7799 7.90436 67.5319 7.90436C68.2838 7.90436 68.9887 7.90437 69.7406 7.85734C70.4925 7.85734 71.1975 7.95139 71.9494 8.13951C73.4062 8.75091 74.4871 9.69151 75.1921 11.1024C75.474 11.8079 75.615 12.5133 75.709 13.2658C75.709 14.0183 75.709 14.7238 75.709 15.4762C75.662 16.2287 75.662 16.9342 75.756 17.6867C75.709 18.3921 75.756 19.0976 75.803 19.756C75.662 20.2263 75.897 20.5085 76.3199 20.6496C76.9779 21.1199 77.6828 21.5432 78.3877 21.9665C78.4347 22.0135 78.4817 22.0135 78.5287 22.0605C79.2336 22.5778 79.9855 23.0481 80.7375 23.4714C82.1473 24.459 83.6512 25.3996 85.108 26.2932C85.202 26.3403 85.296 26.3873 85.39 26.4814C86.0009 26.9517 86.6118 27.3279 87.3168 27.7041C87.6927 28.0333 88.2097 28.2215 88.4916 28.6918C88.8676 29.3972 88.6796 30.1497 88.7736 30.8552C88.7736 31.6077 88.7736 32.3131 88.7736 33.0656C88.7736 33.8181 88.7736 34.5236 88.7736 35.276C88.7736 36.0285 88.7736 36.734 88.7736 37.4865C88.7736 38.239 88.7736 38.9444 88.7736 39.6969C88.7736 40.4494 88.7736 41.1548 88.7736 41.9073C88.7736 42.6598 88.7736 43.3653 88.7736 44.1178C88.7736 44.8702 88.7736 45.5757 88.7736 46.3282C88.7736 47.0807 88.7736 47.7861 88.7736 48.5386C88.7736 49.2911 88.7736 49.9965 88.7736 50.749C88.7736 51.5015 88.7736 52.207 88.7736 52.9595C88.7736 53.7119 88.7736 54.4174 88.7736 55.1699C88.7736 55.9224 88.7736 56.6278 88.7736 57.3803C88.7736 58.1328 88.7736 58.8383 88.7736 59.5908C88.7736 60.3432 88.7736 61.0487 88.7736 61.8012C88.7736 62.5536 88.7736 63.2591 88.7736 64.0116C88.7736 64.7641 88.7736 65.4695 88.7736 66.222C88.7736 66.9745 88.7736 67.68 88.7736 68.4325C88.7736 69.1849 88.7736 69.8904 88.7736 70.6429C88.7736 71.3954 88.7736 72.1008 88.7736 72.8533C88.7266 73.6058 88.8206 74.4053 88.3037 75.0637C88.0217 75.3459 87.6927 75.534 87.3168 75.6751C86.6118 75.6751 85.8599 75.7222 85.155 75.7222C84.4031 75.7222 83.6982 75.7222 82.9462 75.7222C82.1943 75.7222 81.4894 75.7222 80.7375 75.7222C79.9855 75.7222 79.2806 75.7222 78.5287 75.7222C77.7768 75.7222 77.0718 75.7222 76.3199 75.7222C75.568 75.7222 74.8631 75.7222 74.1112 75.7222C73.3592 75.7222 72.6543 75.7222 71.9024 75.7222C71.1505 75.7222 70.4456 75.7222 69.6936 75.7222C68.9417 75.7222 68.2368 75.7222 67.4849 75.7222C66.7329 75.7222 66.028 75.7222 65.2761 75.7222C64.5242 75.7222 63.8193 75.7222 63.0673 75.7222C62.3154 75.7222 61.6105 75.7222 60.8586 75.7222C60.1066 75.7222 59.4017 75.7222 58.6498 75.7222C57.8979 75.7222 57.1929 75.7222 56.441 75.7222C55.6891 75.7222 54.9842 75.7222 54.2323 75.7222C53.4803 75.7222 52.7754 75.7222 52.0235 75.7222C51.2716 75.7222 50.5667 75.7222 49.8147 75.7222C49.0628 75.7222 48.3579 75.7222 47.606 75.7222C46.854 75.7222 46.1491 75.7222 45.3972 75.7222C44.6453 75.7222 43.9404 75.7222 43.1884 75.7222C42.4365 75.7222 41.7316 75.7222 40.9797 75.7222C40.2277 75.7222 39.5228 75.7222 38.7709 75.7222C38.019 75.7222 37.3141 75.7222 36.5621 75.7222C35.8102 75.7222 35.1053 75.7222 34.3534 75.7222C33.6014 75.7222 32.8965 75.7222 32.1446 75.7222C31.3927 75.7222 30.6878 75.7222 29.9358 75.7222C29.1839 75.7222 28.479 75.7222 27.7271 75.7222C26.9752 75.7222 26.2702 75.7222 25.5183 75.7222C24.7664 75.7222 24.0615 75.7222 23.3095 75.7222C22.5576 75.7222 21.8527 75.7222 21.1008 75.7222C20.3488 75.7222 19.6439 75.7222 18.892 75.7222C18.1401 75.7222 17.4352 75.7222 16.6832 75.7222C15.9313 75.7222 15.2264 75.7222 14.4745 75.7222C13.7225 75.7222 13.0176 75.7222 12.2657 75.7222C11.5138 75.7222 10.8089 75.7222 10.0569 75.7222C9.30502 75.7222 8.60009 75.7222 7.84817 75.7222C7.09625 75.7222 6.39132 75.7222 5.6394 75.7222C4.88748 75.7222 4.18256 75.7222 3.43064 75.7222C2.67872 75.6281 1.97379 75.8162 1.22187 75.5811C0.986895 75.393 0.75192 75.2048 0.46995 75.0167C-0.0469955 74.3583 0.0939901 73.5588 0 72.8533C0.516945 72.1008 0.516946 71.3954 0.422956 70.6429ZM36.5621 13.501C36.5621 14.2064 36.5621 14.9119 36.5621 15.5703C36.5621 15.8055 36.5151 16.0406 36.6091 16.2758C37.408 15.7114 38.254 15.4763 39.0999 15.147C39.7578 15.006 40.4157 14.8649 41.1207 14.7238C41.8726 14.6767 42.5775 14.5827 43.3294 14.5356C43.6584 14.5356 43.9404 14.5827 44.2693 14.5356C44.8333 14.4416 45.0212 14.7238 45.1152 15.2411C45.3032 16.0876 45.3972 16.9812 45.5382 17.8278C45.5852 18.5332 45.6322 19.1917 45.6322 19.8971C45.6322 20.1323 45.7262 20.2263 45.9611 20.2263C46.6661 20.1793 47.371 20.2733 48.0759 20.1323C48.6869 20.1323 49.2978 20.1323 49.9557 20.1323C50.7076 20.1793 51.4126 20.1793 52.1645 20.1323C52.9164 20.1323 53.6213 20.1323 54.3733 20.0852C55.1252 20.1323 55.8301 20.1323 56.582 20.0382C57.146 20.0852 57.7569 20.0852 58.3208 20.0382C59.2137 20.0852 60.0596 20.0852 60.9526 19.9912C61.7045 19.9912 62.4094 19.9912 63.1613 19.9912C63.9132 20.0382 64.6182 20.0382 65.3701 19.9441C65.887 19.9912 66.404 19.9912 66.9209 19.9441C67.8608 19.9441 68.8477 19.9441 69.7876 19.8971C70.5395 19.8971 71.2445 19.8971 71.9964 19.8971C72.3723 19.8971 72.7013 19.8971 73.0773 19.8971C73.3122 19.8971 73.4532 19.803 73.4062 19.5679C73.3592 19.0035 73.3592 18.3921 73.3592 17.8278C73.4062 17.0753 73.4062 16.3698 73.3122 15.6174C73.3592 14.8649 73.3592 14.0653 73.2653 13.3129C73.2183 11.5257 71.5734 10.2089 69.7876 10.444C69.0357 10.397 68.3308 10.397 67.5789 10.491C66.8269 10.491 66.122 10.491 65.3701 10.491C64.6182 10.444 63.9132 10.444 63.1613 10.538C62.4094 10.491 61.7045 10.491 60.9526 10.5851C60.2006 10.5381 59.4957 10.5381 58.7438 10.6321C58.5088 10.5851 58.2268 10.5851 57.9919 10.6321C56.77 10.5851 55.5951 10.6321 54.3733 10.6792C53.2924 10.6321 52.2585 10.6321 51.1776 10.7262C50.7546 10.6792 50.3787 10.6792 49.9557 10.7262C49.6737 10.6792 49.3918 10.6792 49.0628 10.7262C47.7 10.7262 46.3371 10.7262 44.9742 10.7262C43.7054 10.7262 42.4365 10.7732 41.1676 10.8202C40.4157 10.7732 39.7108 10.8202 38.9589 10.8202C38.207 10.8202 37.502 10.8202 36.7501 10.8202C36.3742 10.8673 36.5621 11.1495 36.5621 11.3376C36.5621 12.1371 36.5621 12.8426 36.5621 13.501ZM21.3827 20.5555C21.8527 20.5555 22.3226 20.5555 22.7926 20.5555C23.1686 20.6026 23.2625 20.4145 23.1216 20.0852C23.0746 19.3328 22.9806 18.6273 22.9336 17.8748C22.8866 17.3575 23.1216 17.0753 23.5915 16.9812C24.3434 16.8401 25.0484 16.652 25.8003 16.5109C26.5522 16.4169 27.2571 16.3698 28.009 16.2758C28.479 16.2758 28.9489 16.2758 29.4189 16.3228C29.5129 16.3228 29.6539 16.3698 29.7479 16.3698C29.8888 16.4639 30.0298 16.4639 30.1708 16.4168C31.2987 16.7461 31.2987 16.7461 31.1577 15.6644C31.2047 14.9119 31.2047 14.2064 31.1577 13.4539C31.1577 12.7015 31.1577 11.949 31.1577 11.1965C31.1577 10.9143 31.0637 10.8673 30.7817 10.8673C29.8418 10.9143 28.9019 10.9143 27.962 10.9613C27.2101 10.9613 26.5052 10.9613 25.7533 10.9613C23.3095 11.0084 20.8188 11.0084 18.3751 11.0554C17.8581 11.0554 17.3882 11.2435 16.9652 11.5727C16.2603 11.996 15.7903 12.6074 15.6493 13.4539C15.4144 14.1594 15.5554 14.9119 15.5554 15.6644C15.5554 16.4169 15.5554 17.1223 15.5554 17.8748C15.5554 18.6743 15.5554 19.5209 15.5554 20.3204C15.5554 20.5085 15.6024 20.6026 15.8373 20.6026C16.9652 20.5555 18.0461 20.5555 19.174 20.5085C19.9259 20.6496 20.6778 20.6026 21.3827 20.5555ZM42.4365 26.7165C42.7185 27.1398 43.0005 27.516 43.3764 27.8923C43.6114 28.2685 43.8934 28.5977 44.1753 28.8799C44.5983 29.4443 45.0682 30.0086 45.5852 30.526C45.6792 30.7611 45.8672 30.9022 46.0551 31.0433C46.1961 31.2785 46.1491 31.5136 46.1491 31.7488C46.1021 32.2661 46.1021 32.7834 46.0551 33.2537C45.9141 33.9592 45.8672 34.7117 45.8672 35.4642C45.7732 36.2166 45.7262 36.9221 45.6792 37.6746C45.5852 37.9097 45.5852 38.1919 45.6322 38.4271C45.4442 38.5211 45.3972 38.38 45.3502 38.286C45.1152 38.0038 44.9272 37.7687 44.6923 37.4865C44.3163 37.0162 43.9404 36.5459 43.6114 36.1226C43.4704 35.8874 43.2824 35.6523 43.0944 35.4642C42.0606 34.1003 41.0267 32.7834 40.0398 31.4196C39.9458 31.2785 39.8518 31.0903 39.6638 31.0433C39.6168 30.7141 39.3348 30.4789 39.0999 30.2438C38.8179 29.7265 38.4419 29.3032 38.066 28.8329C37.69 28.3155 37.3141 27.7512 36.8911 27.1868C36.8911 27.7982 36.8911 28.3155 36.8911 28.8329C36.8911 29.5854 36.8911 30.2908 36.8911 31.0433C36.8911 31.7958 36.8911 32.5013 36.8911 33.2537C36.8441 34.0062 36.8441 34.7117 36.9381 35.4642C36.8911 36.5459 36.9381 37.6746 36.9851 38.7563C36.9851 39.1325 36.9851 39.5088 36.9851 39.838C36.9851 40.5905 36.9851 41.2959 36.9851 42.0484C36.9381 42.8009 36.9381 43.5064 37.0321 44.2588C37.0321 44.6351 37.0321 45.0113 37.0321 45.3876C37.0321 45.5757 37.0791 45.6698 37.2671 45.7168C38.5829 46.3752 39.9458 47.0807 41.2616 47.7391C42.3425 48.3035 43.4234 48.8678 44.4573 49.4322C44.5983 49.5262 44.7393 49.5262 44.8803 49.4322C45.8672 48.9148 46.854 48.3975 47.8409 47.8332C49.3448 47.1277 50.8016 46.3752 52.2585 45.5757C53.7153 44.8232 55.1722 44.0707 56.629 43.3182C58.1798 42.5657 59.6837 41.7662 61.1875 40.9667C61.8455 40.6845 62.5034 40.3553 63.1143 39.9791C63.2083 39.9791 63.3023 39.9321 63.3493 39.838C64.0542 39.5088 64.7592 39.1796 65.4171 38.7563C66.122 38.4271 66.8739 38.0979 67.5319 37.6746H67.5789L67.6258 37.6276C68.3778 37.2984 69.1297 36.9221 69.8346 36.4988C70.4455 36.2166 71.0095 35.9345 71.5734 35.6053C71.7614 35.6053 71.9024 35.5112 71.9964 35.3701C72.4663 35.135 72.8893 34.8998 73.3592 34.7117C73.5472 34.6176 73.5942 34.5236 73.5942 34.3354C73.5472 34.0062 73.5472 33.63 73.5472 33.3008C73.5942 33.2067 73.5942 33.0656 73.5472 32.9715C73.5942 32.8305 73.5942 32.6894 73.5472 32.5483C73.5942 32.078 73.5942 31.6077 73.5472 31.1374C73.5472 30.3849 73.5472 29.6794 73.5472 28.9269C73.5942 28.1745 73.5942 27.469 73.5002 26.7165C73.5002 26.3873 73.5002 26.011 73.5002 25.6818C73.5002 25.3997 73.4062 25.3526 73.1243 25.3526C72.7483 25.3996 72.3723 25.3997 71.9964 25.3997C71.2445 25.3997 70.5395 25.3997 69.7876 25.3997C69.0357 25.3526 68.3308 25.3526 67.5789 25.4467C66.8269 25.3997 66.122 25.3997 65.3701 25.4937C64.6182 25.4467 63.9132 25.4467 63.1613 25.5408C62.4094 25.4937 61.7045 25.4937 60.9526 25.5878C60.2006 25.5407 59.4957 25.5407 58.7438 25.5878C57.9919 25.5407 57.2869 25.5407 56.535 25.5878C55.7831 25.5407 55.0782 25.5408 54.3263 25.6348C53.5743 25.5878 52.8694 25.5878 52.1175 25.6348C51.3656 25.6348 50.6606 25.6348 49.9087 25.6348C49.1568 25.5878 48.4519 25.5878 47.7 25.6818C46.948 25.6348 46.2431 25.6348 45.4912 25.7289C44.7393 25.6819 44.0343 25.7289 43.2824 25.7289C42.7655 25.7289 42.2015 25.7289 41.5436 25.7289C41.9196 26.1051 42.2015 26.4343 42.4365 26.7165ZM13.3466 33.2067C13.3936 32.5012 13.3936 31.7958 13.2996 31.1374C13.3466 30.3849 13.3466 29.6794 13.2526 28.9269C13.2996 28.3155 13.2996 27.7042 13.2526 27.0457C13.2526 26.5284 13.2526 26.0111 13.2526 25.3997C10.9498 26.9046 8.69408 28.3155 6.34433 29.8205C8.5061 30.9022 10.5269 31.9369 12.5947 32.9715C12.7826 33.1126 13.0176 33.2537 13.2526 33.3008C13.3936 33.3478 13.3936 33.2537 13.3466 33.2067ZM4.46453 71.6305C4.46453 71.7246 4.51152 71.7246 4.60551 71.7246C5.07546 71.7246 5.54541 71.7246 6.01536 71.7246C6.76728 71.7246 7.47221 71.7246 8.22413 71.7246C8.97605 71.7246 9.68098 71.7246 10.4329 71.7246C11.1848 71.7246 11.8897 71.7246 12.6417 71.7246C13.3936 71.7246 14.0985 71.7246 14.8504 71.7246C15.6024 71.7246 16.3073 71.7246 17.0592 71.7246C17.8111 71.7246 18.516 71.7246 19.268 71.7246C20.0199 71.7246 20.7248 71.7246 21.4767 71.7246C22.2287 71.7246 22.9336 71.7246 23.6855 71.7246C24.4374 71.7246 25.1423 71.7246 25.8943 71.7246C26.6462 71.7246 27.3511 71.7246 28.103 71.7246C28.8549 71.7246 29.5599 71.7246 30.3118 71.7246C31.0637 71.7246 31.7686 71.7246 32.5206 71.7246C33.2725 71.7246 33.9774 71.7246 34.7293 71.7246C35.4812 71.7246 36.1862 71.7246 36.9381 71.7246C37.69 71.7246 38.3949 71.7246 39.1469 71.7246C39.8988 71.7246 40.6037 71.7246 41.3556 71.7246C42.1075 71.7246 42.8125 71.7246 43.5644 71.7246C44.3163 71.7246 45.0212 71.7246 45.7732 71.7246C46.5251 71.7246 47.23 71.7246 47.9819 71.7246C48.7338 71.7246 49.4388 71.7246 50.1907 71.7246C50.9426 71.7246 51.6475 71.7246 52.3995 71.7246C53.1514 71.7246 53.8563 71.7246 54.6082 71.7246C55.3601 71.7246 56.0651 71.7246 56.817 71.7246C57.5689 71.7246 58.2738 71.7246 59.0258 71.7246C59.7777 71.7246 60.4826 71.7246 61.2345 71.7246C61.9864 71.7246 62.6914 71.7246 63.4433 71.7246C64.1952 71.7246 64.9001 71.7246 65.6521 71.7246C66.404 71.7246 67.1089 71.7246 67.8608 71.7246C68.6127 71.7246 69.3177 71.7246 70.0696 71.7246C70.8215 71.7246 71.5264 71.7246 72.2784 71.7246C73.0303 71.7246 73.7352 71.7246 74.4871 71.7246C75.239 71.7246 75.944 71.7246 76.6959 71.7246C77.4478 71.7246 78.1527 71.7246 78.9047 71.7246C79.6566 71.7246 80.3615 71.7246 81.1134 71.7246C81.8653 71.7246 82.5703 71.7246 83.3222 71.7246C83.6042 71.7246 83.8861 71.7246 84.1211 71.7246C85.202 71.7246 85.202 71.7246 85.108 70.6429C85.108 69.8904 85.108 69.1849 85.108 68.4325C85.108 67.68 85.108 66.9745 85.108 66.222C85.108 65.4695 85.108 64.7641 85.108 64.0116C85.108 63.2591 85.108 62.5536 85.108 61.8012C85.108 61.0487 85.108 60.3432 85.108 59.5908C85.108 58.8383 85.108 58.1328 85.108 57.3803C85.108 56.6278 85.108 55.9224 85.108 55.1699C85.108 54.4174 85.108 53.7119 85.108 52.9595C85.108 52.207 85.108 51.5015 85.108 50.749C85.108 49.9965 85.108 49.2911 85.108 48.5386C85.108 47.7861 85.108 47.0807 85.108 46.3282C85.108 45.5757 85.108 44.8702 85.108 44.1178C85.108 43.3653 85.108 42.6598 85.108 41.9073C85.108 41.1548 85.108 40.4494 85.108 39.6969C85.108 38.9444 85.108 38.239 85.108 37.4865C85.108 36.734 85.108 36.0285 85.108 35.276C85.108 34.5236 85.108 33.8181 85.108 33.0186C84.4501 33.3948 83.8391 33.677 83.2752 34.0062C81.8183 34.7587 80.3615 35.5112 78.9047 36.2637C77.3538 37.0162 75.85 37.8157 74.3461 38.6152C73.6882 38.8974 73.0303 39.2266 72.4193 39.6499C72.3723 39.6499 72.3723 39.6499 72.3254 39.6969C71.5734 40.0261 70.8215 40.4023 70.1166 40.8726C69.5057 41.1548 68.9417 41.437 68.3778 41.7662C68.1898 41.8133 68.0488 41.8603 67.9548 42.0014C66.404 42.7539 64.9001 43.5534 63.3963 44.3529C62.6914 44.6821 62.0334 45.0113 61.3755 45.3876C60.8586 45.5757 60.3886 45.8579 59.9657 46.1401C59.6837 46.2341 59.4017 46.3752 59.1667 46.5633C57.6629 47.3158 56.1591 48.0683 54.6552 48.9149C53.9503 49.2441 53.2454 49.5733 52.5874 49.9965C52.2115 50.1376 51.8355 50.3258 51.5066 50.5609C51.0836 50.702 50.6606 50.9372 50.2847 51.1723C48.8278 51.8778 47.418 52.5832 46.0081 53.3827C45.2562 53.712 44.5513 53.6179 43.7994 53.2417C42.3425 52.3951 40.8857 51.6896 39.3818 50.9372C39.0999 50.749 38.8179 50.6079 38.4889 50.4669C38.066 50.1847 37.643 49.9495 37.1731 49.7614C36.4681 49.3381 35.7162 48.9619 34.9643 48.6327C33.5544 47.8331 32.0506 47.0807 30.5938 46.3752C30.4058 46.2341 30.2178 46.1401 30.0298 46.093C29.5129 45.7638 28.9489 45.4816 28.385 45.2465C27.6801 44.8232 26.9751 44.447 26.2232 44.1178C24.7664 43.3182 23.3095 42.5657 21.8057 41.8133C21.7587 41.7192 21.6647 41.7192 21.5707 41.7192C20.9598 41.2959 20.3019 41.0138 19.5969 40.6845C18.892 40.2613 18.1871 39.885 17.4352 39.5558C16.6832 39.1325 15.9783 38.7093 15.1794 38.38C13.7225 37.5805 12.2657 36.8281 10.7619 36.0756C9.35201 35.2761 7.94216 34.5706 6.48531 33.8651C5.96837 33.5359 5.40443 33.2537 4.79349 32.9715C4.79349 33.7711 4.79349 34.4765 4.79349 35.182C4.7465 35.9345 4.7465 36.6399 4.79349 37.3924C4.7465 38.1449 4.7465 38.8504 4.79349 39.6028C4.7465 40.3083 4.7465 41.0608 4.79349 41.7662C4.7465 42.5187 4.7465 43.2242 4.79349 43.9767C4.7465 44.6821 4.7465 45.4346 4.79349 46.1401C4.7465 46.8925 4.7465 47.598 4.79349 48.3505C4.7465 49.0559 4.7465 49.8084 4.79349 50.5139C4.7465 51.2664 4.7465 51.9718 4.79349 52.7243C4.7465 53.4298 4.7465 54.1823 4.79349 54.8877C4.7465 55.6402 4.7465 56.3456 4.79349 57.0981C4.7465 57.8036 4.7465 58.5561 4.79349 59.2615C4.7465 60.014 4.7465 60.7195 4.79349 61.472C4.7465 62.1774 4.7465 62.9299 4.79349 63.6354C4.7465 64.3878 4.7465 65.0933 4.79349 65.8458C4.7465 66.5512 4.7465 67.3037 4.79349 68.0092C4.7465 68.7617 4.7465 69.4671 4.79349 70.2196C4.41753 70.9721 4.41753 71.3013 4.46453 71.6305ZM25.4713 25.917C24.8604 25.917 24.2494 25.917 23.5915 25.917C21.3827 25.87 19.174 25.917 17.0122 26.0111C16.7772 26.0111 16.5423 26.0111 16.3073 25.964C15.7433 25.87 15.5554 26.1051 15.6963 26.6695C15.6963 27.422 15.6963 28.1274 15.6963 28.8799C15.6493 29.6324 15.6493 30.3378 15.7433 31.0903C15.6963 31.8428 15.7433 32.5483 15.7903 33.3008C15.6963 34.7117 15.6963 34.7117 16.7772 35.182H16.8242C18.3281 36.0285 19.8319 36.781 21.3827 37.5335C21.4767 37.5805 21.5707 37.6276 21.6647 37.6746C22.2756 38.0508 22.8866 38.3801 23.5445 38.6622C24.2494 39.0855 25.0014 39.4617 25.7063 39.791C27.1631 40.5905 28.62 41.3429 30.1238 42.0484C30.4528 42.2365 30.7348 42.3776 31.0637 42.5658C31.4397 42.8009 31.5807 42.7539 31.4867 42.2836C31.4867 42.1895 31.4867 42.0954 31.4397 42.0014C31.4397 41.2489 31.4397 40.5434 31.4397 39.791C31.4867 39.0385 31.4867 38.333 31.3927 37.5805C31.4397 36.828 31.4397 36.1226 31.3457 35.3701C31.3927 34.6176 31.3927 33.9122 31.2987 33.1597C31.3457 32.8775 31.3457 32.5953 31.2987 32.2661C31.3457 31.8898 31.3457 31.5136 31.2987 31.1844C31.2987 31.0903 31.2987 31.0433 31.2987 30.9492C31.3457 30.4789 31.3457 30.0086 31.2517 29.4443C30.9227 30.0086 30.6408 30.4789 30.3588 30.9492C30.2178 31.0433 30.1238 31.1844 30.1238 31.3725C29.7009 31.9369 29.3249 32.5483 28.9489 33.1597C27.962 34.6176 27.0221 36.0756 26.0352 37.5335C25.8943 37.6746 25.8003 37.8157 25.7533 37.9568C25.6123 38.0508 25.4713 38.1919 25.4243 37.8627C25.4243 37.7687 25.3303 37.6276 25.3303 37.5335C25.2363 36.781 25.0484 36.0285 24.8134 35.3231C24.7194 34.5706 24.4844 33.8651 24.2964 33.1597C24.2024 32.4072 23.8735 31.7017 23.8735 30.9492C24.5314 30.2438 25.0953 29.5383 25.6593 28.7388C25.8003 28.6918 25.8473 28.5507 25.8943 28.4096C26.3642 27.8452 26.7872 27.2809 27.2101 26.6695C27.4451 26.3873 27.6801 26.1051 27.8211 25.7759C27.0221 25.917 26.2232 25.917 25.4713 25.917ZM45.5852 6.02315C44.6453 5.31769 44.6453 5.31768 43.7054 5.92908C43.5644 6.02314 43.4704 6.1172 43.3764 6.16423C42.9535 6.39938 42.5305 6.63455 42.1545 6.91673C41.7786 7.10486 41.4496 7.29296 41.1676 7.57514C40.7447 7.85732 40.2747 8.09248 39.8518 8.37466C39.8518 8.42169 39.8988 8.4217 39.8988 8.46873C40.1807 8.46873 40.4627 8.42168 40.7447 8.42168C41.6376 8.46871 42.4835 8.46872 43.3764 8.37466C44.1283 8.42169 44.8333 8.42171 45.5852 8.32764C46.3371 8.32764 47.042 8.32764 47.7939 8.32764C48.2169 8.32764 48.6869 8.32764 49.1098 8.32764C49.1098 8.28061 49.1568 8.28061 49.1568 8.23358C48.6869 7.9514 48.2639 7.66922 47.7939 7.38704C47.559 7.19892 47.324 7.01079 47.042 6.91673C46.5721 6.58752 46.0551 6.2583 45.5852 6.02315ZM76.3199 33.1126C77.0718 32.7834 77.7768 32.4072 78.4817 31.9839C78.9517 31.7488 79.4216 31.6077 79.7976 31.2314C80.1265 31.2314 80.3145 31.0433 80.5495 30.9022C81.2544 30.573 81.9593 30.1967 82.7582 29.8205C81.2544 28.8799 79.8916 27.9863 78.4817 27.1398C77.5888 26.5754 76.6959 25.964 75.85 25.3997C75.85 27.3749 75.85 29.2562 75.85 31.1374C75.85 31.7488 75.85 32.3602 75.85 32.9715C75.85 33.4419 76.038 33.3008 76.3199 33.1126Z" fill="#EF4F95"/>
</svg>
