<svg width="70" height="70" viewBox="0 0 70 70" fill="none" xmlns="http://www.w3.org/2000/svg">
<path d="M58.9443 23.9453C58.9443 10.7207 48.2237 0 34.9991 0C21.7745 0 11.0538 10.7207 11.0538 23.9453C7.63496 24.371 4.40234 26.6059 4.40234 31.794V44.2987C4.40234 50.152 8.49965 52.2805 12.3841 52.2805H16.2419C16.9766 52.2805 17.5722 51.6849 17.5722 50.9502V25.1957C17.5722 24.4611 16.9766 23.8655 16.2419 23.8655H13.7144C13.7144 12.1103 23.2439 2.58077 34.9991 2.58077C46.7542 2.58077 56.2838 12.1103 56.2838 23.8655H53.7562C53.0215 23.8655 52.4259 24.4611 52.4259 25.1957V50.9103C52.4259 51.645 53.0215 52.2406 53.7562 52.2406H56.2838C55.9113 61.3797 51.5213 63.5215 42.7547 63.9073V63.016C42.7547 61.5465 41.5636 60.3554 40.0941 60.3554H31.7266C30.2571 60.3554 29.066 61.5465 29.066 63.016V67.3394C29.066 68.8089 30.2571 70 31.7266 70H40.1207C41.5902 70 42.7813 68.8089 42.7813 67.3394V66.5678C51.2153 66.1821 58.5053 64.4394 58.9443 52.1608C62.3632 51.7351 65.5958 49.5002 65.5958 44.312V31.8073C65.5958 26.5926 62.3765 24.371 58.9443 23.9453ZM14.9117 26.4329V49.58H12.3176C10.3488 49.58 6.99641 48.8883 6.99641 44.2588V31.7541C6.99641 27.1646 10.3088 26.4329 12.3176 26.4329H14.9117ZM40.1207 65.3307V67.3527H31.7266V63.0293H40.1207V65.3307ZM62.9352 44.2987C62.9352 48.8883 59.6228 49.6199 57.6141 49.6199H55.0865V26.526H57.6806C59.6494 26.526 63.0017 27.2178 63.0017 31.8472L62.9352 44.2987Z" fill="#D13292"/>
</svg>
