<svg width="70" height="70" viewBox="0 0 70 70" fill="none" xmlns="http://www.w3.org/2000/svg">
<path d="M36.0938 27.3438H22.9688C22.0985 27.3438 21.2639 27.6895 20.6486 28.3048C20.0332 28.9202 19.6875 29.7548 19.6875 30.625C19.6875 31.4952 20.0332 32.3298 20.6486 32.9452C21.2639 33.5605 22.0985 33.9062 22.9688 33.9062H36.0938C36.964 33.9062 37.7986 33.5605 38.4139 32.9452C39.0293 32.3298 39.375 31.4952 39.375 30.625C39.375 29.7548 39.0293 28.9202 38.4139 28.3048C37.7986 27.6895 36.964 27.3438 36.0938 27.3438ZM36.0938 31.7188H22.9688C22.6787 31.7188 22.4005 31.6035 22.1954 31.3984C21.9902 31.1933 21.875 30.9151 21.875 30.625C21.875 30.3349 21.9902 30.0567 22.1954 29.8516C22.4005 29.6465 22.6787 29.5312 22.9688 29.5312H36.0938C36.3838 29.5312 36.662 29.6465 36.8671 29.8516C37.0723 30.0567 37.1875 30.3349 37.1875 30.625C37.1875 30.9151 37.0723 31.1933 36.8671 31.3984C36.662 31.6035 36.3838 31.7188 36.0938 31.7188Z" fill="#D13292"/>
<path d="M26.25 36.0938H10.9375C10.6474 36.0938 10.3692 36.209 10.1641 36.4141C9.95898 36.6192 9.84375 36.8974 9.84375 37.1875V50.3125C9.84375 50.6026 9.95898 50.8808 10.1641 51.0859C10.3692 51.291 10.6474 51.4062 10.9375 51.4062H26.25C26.5401 51.4062 26.8183 51.291 27.0234 51.0859C27.2285 50.8808 27.3438 50.6026 27.3438 50.3125V37.1875C27.3438 36.8974 27.2285 36.6192 27.0234 36.4141C26.8183 36.209 26.5401 36.0938 26.25 36.0938ZM25.1562 49.2188H12.0312V38.2812H25.1562V49.2188Z" fill="#D13292"/>
<path d="M14.2188 42.6562H17.5C17.7901 42.6562 18.0683 42.541 18.2734 42.3359C18.4785 42.1308 18.5938 41.8526 18.5938 41.5625C18.5938 41.2724 18.4785 40.9942 18.2734 40.7891C18.0683 40.584 17.7901 40.4688 17.5 40.4688H14.2188C13.9287 40.4688 13.6505 40.584 13.4454 40.7891C13.2402 40.9942 13.125 41.2724 13.125 41.5625C13.125 41.8526 13.2402 42.1308 13.4454 42.3359C13.6505 42.541 13.9287 42.6562 14.2188 42.6562Z" fill="#D13292"/>
<path d="M14.2188 47.0312H20.7812C21.0713 47.0312 21.3495 46.916 21.5546 46.7109C21.7598 46.5058 21.875 46.2276 21.875 45.9375C21.875 45.6474 21.7598 45.3692 21.5546 45.1641C21.3495 44.959 21.0713 44.8438 20.7812 44.8438H14.2188C13.9287 44.8438 13.6505 44.959 13.4454 45.1641C13.2402 45.3692 13.125 45.6474 13.125 45.9375C13.125 46.2276 13.2402 46.5058 13.4454 46.7109C13.6505 46.916 13.9287 47.0312 14.2188 47.0312Z" fill="#D13292"/>
<path d="M53.5938 41.6128V6.5625C53.5938 6.27242 53.4785 5.99422 53.2734 5.7891C53.0683 5.58398 52.7901 5.46875 52.5 5.46875H6.5625C6.27242 5.46875 5.99422 5.58398 5.7891 5.7891C5.58398 5.99422 5.46875 6.27242 5.46875 6.5625V54.6875C5.46875 54.9776 5.58398 55.2558 5.7891 55.4609C5.99422 55.666 6.27242 55.7812 6.5625 55.7812H40.6686C41.0757 57.9834 42.0893 60.0281 43.5954 61.6855C45.1014 63.3428 47.0402 64.5469 49.1934 65.1623C51.3466 65.7777 53.6288 65.7799 55.7832 65.1686C57.9376 64.5574 59.8786 63.3571 61.3879 61.7026C62.8971 60.0482 63.9147 58.0054 64.326 55.8041C64.7373 53.6028 64.5261 51.3303 63.7161 49.2425C62.9061 47.1547 61.5295 45.3344 59.7412 43.9865C57.9529 42.6386 55.8239 41.8165 53.5938 41.6128ZM36.0938 7.65625H51.4062V12.0312H36.0938V7.65625ZM25.1562 7.65625H33.9062V12.0312H25.1562V7.65625ZM25.1562 14.2188H33.9062V22.447L29.9374 20.8595C29.6767 20.7552 29.3858 20.7552 29.1251 20.8595L25.1562 22.447V14.2188ZM7.65625 7.65625H22.9688V12.0312H7.65625V7.65625ZM40.4688 53.5938H7.65625V14.2188H22.9688V24.0625C22.9687 24.2412 23.0125 24.4173 23.0963 24.5751C23.1801 24.733 23.3013 24.868 23.4493 24.9682C23.5973 25.0684 23.7676 25.1308 23.9453 25.15C24.123 25.1691 24.3027 25.1444 24.4687 25.078L29.5312 23.053L34.5938 25.078C34.7598 25.1444 34.9395 25.1691 35.1172 25.15C35.2949 25.1308 35.4652 25.0684 35.6132 24.9682C35.7612 24.868 35.8824 24.733 35.9662 24.5751C36.05 24.4173 36.0938 24.2412 36.0938 24.0625V14.2188H51.4062V41.6128C48.4186 41.8892 45.6416 43.2705 43.6186 45.4864C41.5957 47.7023 40.4725 50.5933 40.4688 53.5938ZM52.5 63.4375C50.5531 63.4375 48.6499 62.8602 47.0311 61.7785C45.4123 60.6969 44.1506 59.1595 43.4056 57.3608C42.6605 55.5621 42.4656 53.5828 42.8454 51.6733C43.2252 49.7638 44.1627 48.0098 45.5394 46.6332C46.9161 45.2565 48.6701 44.319 50.5796 43.9391C52.4891 43.5593 54.4683 43.7543 56.267 44.4993C58.0657 45.2444 59.6031 46.5061 60.6848 48.1249C61.7664 49.7436 62.3438 51.6468 62.3438 53.5938C62.3408 56.2036 61.3028 58.7057 59.4573 60.5511C57.6119 62.3965 55.1098 63.4346 52.5 63.4375Z" fill="#D13292"/>
<path d="M54.6875 49.2188H49.2188C48.9287 49.2188 48.6505 49.334 48.4454 49.5391C48.2403 49.7442 48.125 50.0224 48.125 50.3125C48.125 50.6026 48.2403 50.8808 48.4454 51.0859C48.6505 51.291 48.9287 51.4063 49.2188 51.4063H54.6875C55.2677 51.4063 55.8241 51.6367 56.2343 52.047C56.6446 52.4572 56.875 53.0136 56.875 53.5938C56.875 54.1739 56.6446 54.7303 56.2343 55.1405C55.8241 55.5508 55.2677 55.7813 54.6875 55.7813H50.7656L51.086 55.4609C51.2911 55.2558 51.4063 54.9776 51.4063 54.6875C51.4063 54.3974 51.2911 54.1192 51.086 53.9141C50.8808 53.709 50.6026 53.5937 50.3125 53.5937C50.0225 53.5937 49.7442 53.709 49.5391 53.9141L47.3516 56.1016C47.2501 56.2031 47.1695 56.3237 47.1145 56.4564C47.0595 56.5891 47.0313 56.7314 47.0312 56.875C47.0312 57.0186 47.0595 57.1609 47.1145 57.2936C47.1695 57.4263 47.2501 57.5469 47.3516 57.6484L49.5391 59.8359C49.7442 60.041 50.0225 60.1563 50.3125 60.1563C50.6026 60.1563 50.8808 60.041 51.086 59.8359C51.2911 59.6308 51.4063 59.3526 51.4063 59.0625C51.4063 58.7724 51.2911 58.4942 51.086 58.2891L50.7656 57.9688H54.6875C55.8479 57.9688 56.9607 57.5078 57.7811 56.6873C58.6016 55.8669 59.0625 54.7541 59.0625 53.5938C59.0625 52.4334 58.6016 51.3206 57.7811 50.5002C56.9607 49.6797 55.8479 49.2188 54.6875 49.2188Z" fill="#D13292"/>
</svg>
