<svg width="70" height="70" viewBox="0 0 70 70" fill="none" xmlns="http://www.w3.org/2000/svg">
<g clip-path="url(#clip0_535_1478)">
<path d="M34.9973 10.8856C21.7004 10.8856 10.8828 21.7032 10.8828 35C10.8828 48.2969 21.7004 59.1145 34.9973 59.1145C48.2941 59.1145 59.1117 48.2969 59.1117 35C59.1117 21.7032 48.2941 10.8856 34.9973 10.8856ZM34.9973 56.8467C22.951 56.8467 13.1506 47.0464 13.1506 35C13.1506 22.9536 22.951 13.1533 34.9973 13.1533C47.0436 13.1533 56.844 22.9537 56.844 35C56.844 47.0463 47.0436 56.8467 34.9973 56.8467Z" fill="#D13292"/>
<path d="M36.1368 34.1343V25.2939C39.8416 25.5917 42.3355 27.3153 42.3355 28.8769C42.3355 29.5031 42.8431 30.0108 43.4694 30.0108C44.0956 30.0108 44.6034 29.5032 44.6034 28.8769C44.6034 25.8067 40.9665 23.3556 36.1368 23.021V21.6955C36.1368 21.0693 35.6292 20.5615 35.0029 20.5615C34.3767 20.5615 33.8689 21.0692 33.8689 21.6955V23.021C29.0392 23.3556 25.4023 25.8067 25.4023 28.8769C25.4023 32.9899 29.3132 34.5949 33.8689 35.8657V44.7061C30.1641 44.4081 27.6702 42.6847 27.6702 41.1231C27.6702 40.4969 27.1626 39.9891 26.5363 39.9891C25.9101 39.9891 25.4023 40.4968 25.4023 41.1231C25.4023 44.1932 29.0392 46.6443 33.8689 46.979V48.3045C33.8689 48.9307 34.3766 49.4384 35.0029 49.4384C35.629 49.4384 36.1368 48.9308 36.1368 48.3045V46.979C40.9665 46.6443 44.6034 44.1932 44.6034 41.1231C44.6032 37.01 40.6925 35.4052 36.1368 34.1343ZM33.8689 33.5039C29.27 32.145 27.6702 30.9109 27.6702 28.8769C27.6702 27.3153 30.1641 25.5917 33.8689 25.2939V33.5039ZM36.1368 44.7061V36.4961C40.7358 37.8549 42.3355 39.0891 42.3355 41.1231C42.3355 42.6847 39.8416 44.4083 36.1368 44.7061Z" fill="#D13292"/>
<path d="M59.7481 10.2513C53.1376 3.64055 44.3483 0 34.9994 0C24.9349 0 15.5375 4.23486 8.89176 11.6895L9.51287 7.3418C9.60133 6.72178 9.17053 6.14756 8.55065 6.05897C7.93049 5.97106 7.35641 6.40131 7.26781 7.02105L6.05826 15.4876C6.00276 15.8766 6.1526 16.2667 6.4542 16.5186C6.66119 16.6913 6.91904 16.782 7.181 16.782C7.30104 16.782 7.42217 16.7629 7.53947 16.7237L14.7965 14.3047C15.3907 14.1066 15.7117 13.4646 15.5137 12.8704C15.3155 12.2762 14.6736 11.955 14.0794 12.1532L10.4334 13.3686C16.6568 6.29193 25.5114 2.26775 34.9994 2.26775C43.7425 2.26775 51.9622 5.67246 58.1447 11.8547C64.327 18.0372 67.7317 26.2568 67.7317 35C67.7317 43.7432 64.327 51.9628 58.1447 58.1453C51.9622 64.3275 43.7426 67.7322 34.9994 67.7322C34.3733 67.7322 33.8655 68.2399 33.8655 68.8662C33.8655 69.4924 34.3731 70.0001 34.9994 70.0001C44.3483 70.0001 53.1376 66.3596 59.7481 59.7488C66.3586 53.1381 69.9994 44.3488 69.9994 35C69.9994 25.6512 66.3589 16.8618 59.7481 10.2513Z" fill="#D13292"/>
<path d="M30.3209 67.4005C29.9354 67.3453 29.5471 67.2828 29.1669 67.2145C28.5503 67.1033 27.961 67.5133 27.8501 68.1298C27.7393 68.7461 28.149 69.3357 28.7655 69.4466C29.1723 69.5197 29.5876 69.5867 29.9998 69.6456C30.0542 69.6534 30.1083 69.6572 30.1618 69.6572C30.7169 69.6572 31.2019 69.2491 31.2829 68.6839C31.3713 68.0638 30.9408 67.4894 30.3209 67.4005Z" fill="#D13292"/>
<path d="M24.7813 66.1057C24.0675 65.8713 23.3525 65.6086 22.6559 65.3247C22.0762 65.0888 21.4144 65.3668 21.1778 65.9471C20.9416 66.527 21.2202 67.1888 21.8002 67.4251C22.5454 67.7288 23.3104 68.0098 24.0741 68.2605C24.1915 68.299 24.3107 68.3174 24.428 68.3174C24.9047 68.3174 25.3483 68.0144 25.5053 67.5368C25.7004 66.9416 25.3763 66.301 24.7813 66.1057Z" fill="#D13292"/>
<path d="M3.02073 42.0123C2.86064 41.2784 2.72419 40.5292 2.61523 39.7854C2.52431 39.1657 1.949 38.7376 1.32911 38.8279C0.709367 38.9186 0.280617 39.4945 0.371535 40.114C0.488156 40.9094 0.633898 41.7107 0.805206 42.4956C0.921007 43.0261 1.3905 43.3881 1.91194 43.3881C1.99206 43.3881 2.07341 43.3796 2.15476 43.3619C2.76644 43.2283 3.15431 42.6241 3.02073 42.0123Z" fill="#D13292"/>
<path d="M2.6391 24.922C2.03576 24.7563 1.41137 25.1117 1.24567 25.7157C1.03293 26.4905 0.844807 27.2833 0.686487 28.0719C0.563166 28.6859 0.960881 29.2836 1.57489 29.407C1.65035 29.4221 1.72528 29.4294 1.79938 29.4294C2.32834 29.4294 2.8018 29.0571 2.90981 28.5186C3.05787 27.7814 3.23383 27.0401 3.43262 26.3156C3.59819 25.7117 3.24313 25.0877 2.6391 24.922Z" fill="#D13292"/>
<path d="M5.14973 48.4474C4.84075 47.7627 4.552 47.0583 4.29141 46.3539C4.07417 45.7666 3.42175 45.4665 2.83454 45.6839C2.2472 45.9011 1.94724 46.5534 2.16448 47.1408C2.44311 47.8941 2.75196 48.6475 3.08255 49.3802C3.27177 49.7998 3.68452 50.0479 4.11683 50.0479C4.27268 50.0479 4.43114 50.0155 4.58249 49.9473C5.15343 49.6897 5.40718 49.0182 5.14973 48.4474Z" fill="#D13292"/>
<path d="M1.26342 31.8075C0.63752 31.7695 0.101035 32.2462 0.0635742 32.8714C0.0214648 33.5757 0 34.2918 0 35.001C0 35.0976 0.000410156 35.1942 0.00123047 35.2907C0.00615234 35.9138 0.512832 36.4156 1.13504 36.4156C1.13791 36.4156 1.14105 36.4156 1.14406 36.4156C1.77023 36.4107 2.27391 35.8989 2.26912 35.2728C2.26844 35.1816 2.26789 35.0904 2.26789 35C2.26789 34.3369 2.28799 33.6666 2.3275 33.0073C2.3651 32.3823 1.88863 31.8451 1.26342 31.8075Z" fill="#D13292"/>
<path d="M18.594 63.3297C17.9446 62.9528 17.2993 62.5479 16.6759 62.1259C16.1572 61.775 15.4524 61.9107 15.1013 62.4293C14.7502 62.948 14.8861 63.6528 15.4047 64.0039C16.071 64.4551 16.7612 64.8881 17.4556 65.2911C17.6347 65.3952 17.8303 65.4445 18.0238 65.4445C18.4148 65.4445 18.7952 65.242 19.0056 64.8795C19.32 64.3382 19.1357 63.6442 18.594 63.3297Z" fill="#D13292"/>
<path d="M8.56123 54.3043C8.11758 53.6977 7.68952 53.068 7.28852 52.432C6.95465 51.9023 6.25452 51.7433 5.72459 52.0776C5.19481 52.4116 5.03622 53.1117 5.37022 53.6415C5.79883 54.3214 6.25657 54.9947 6.73084 55.6432C6.95301 55.9469 7.29768 56.1076 7.64686 56.1076C7.87928 56.1076 8.11362 56.0364 8.31541 55.8889C8.821 55.5191 8.93106 54.8098 8.56123 54.3043Z" fill="#D13292"/>
<path d="M13.11 59.3366C12.5512 58.8338 12.0027 58.3048 11.4797 57.7647C11.0442 57.3148 10.3265 57.3032 9.87644 57.7389C9.4265 58.1745 9.41488 58.8923 9.8506 59.3422C10.4095 59.9196 10.9958 60.4849 11.5929 61.0223C11.8098 61.2174 12.081 61.3134 12.3512 61.3134C12.6614 61.3134 12.9704 61.1868 13.1943 60.9381C13.6132 60.4725 13.5754 59.7555 13.11 59.3366Z" fill="#D13292"/>
<path d="M4.87774 19.4613C4.31186 19.1927 3.63551 19.4336 3.36686 19.9989C3.18885 20.3735 3.01536 20.7563 2.85102 21.137C2.60274 21.7117 2.86756 22.3792 3.44247 22.6275C3.58903 22.6906 3.74147 22.7207 3.89145 22.7207C4.33018 22.7207 4.74813 22.4645 4.93297 22.0362C5.08665 21.6804 5.24879 21.3223 5.41532 20.9721C5.68397 20.4063 5.44334 19.7301 4.87774 19.4613Z" fill="#D13292"/>
</g>
<defs>
<clipPath id="clip0_535_1478">
<rect width="70" height="70" fill="white"/>
</clipPath>
</defs>
</svg>
