<svg width="90" height="79" viewBox="0 0 90 79" fill="none" xmlns="http://www.w3.org/2000/svg">
<path d="M89.7904 56.6438L89.2581 55.6975C88.3118 54.0415 87.3655 52.3855 86.4192 50.7295C83.876 46.3528 81.2737 41.7988 78.7897 37.3039C78.3165 36.4759 77.7842 36.0028 77.0745 35.7662C76.0691 35.4705 75.2411 36.0027 74.5314 36.4168C73.5259 37.0082 72.5796 37.5996 71.5742 38.1319C68.3804 40.0245 65.0684 41.9171 61.8155 43.6914C60.9875 44.1645 60.1004 44.6968 59.8046 45.7023C59.5089 46.7077 59.9821 47.5948 60.4552 48.4229C63.7673 53.9823 66.8427 59.4827 70.5688 65.9884C70.9828 66.6982 71.4559 67.4079 72.3431 67.6445C72.5205 67.7036 72.6979 67.7036 72.8753 67.7036C73.3485 67.7036 73.8808 67.5262 74.4131 67.2305C77.5477 65.397 80.7414 63.5636 83.8169 61.7893C85.2955 60.9613 86.7149 60.1333 88.1935 59.2461C88.2526 59.187 88.3118 59.187 88.3709 59.1278C88.8441 58.8913 89.9678 58.2998 89.8495 56.8212L89.7904 56.6438ZM87.3063 57.1169C87.188 57.1761 87.0697 57.2352 87.0106 57.2944C85.532 58.1224 84.1126 58.9504 82.634 59.8376C79.5585 61.6119 76.3648 63.4453 73.2302 65.2787C73.1119 65.3379 72.9936 65.397 72.9345 65.397C72.8753 65.3379 72.7571 65.1604 72.6388 64.9239C68.9127 58.359 65.8373 52.9178 62.5252 47.2992C62.1704 46.6486 62.1704 46.4711 62.1112 46.4711C62.1112 46.4711 62.2295 46.2937 62.9392 45.8797C66.3104 44.1054 69.6224 42.1537 72.8162 40.2611C73.8216 39.6696 74.7679 39.0782 75.7734 38.5459C75.9508 38.4276 76.3057 38.2502 76.4831 38.1911C76.5422 38.2502 76.6014 38.3685 76.7197 38.5459C79.2037 43.0408 81.8651 47.5949 84.3492 52.0306C85.2954 53.6866 86.2417 55.3426 87.188 56.9986L87.3063 57.1169C87.3063 57.0578 87.3063 57.0578 87.3063 57.1169Z" fill="#EF4F95"/>
<path d="M39.7562 15.5983C39.8153 15.5983 39.8745 15.5983 39.9336 15.5983C41.9445 15.5983 43.778 14.8886 45.1383 13.6465C46.5577 12.3454 47.3266 10.4528 47.3857 8.38281C47.4448 6.25365 46.7351 4.42018 45.434 3.00074C44.0737 1.5813 42.0628 0.753296 39.8153 0.753296C39.7562 0.753296 39.7562 0.753296 39.6971 0.753296C37.9228 0.753296 36.0893 1.52215 34.6699 2.88244C33.1913 4.30189 32.3633 6.1945 32.3633 8.08709C32.3633 12.3454 35.4387 15.5391 39.7562 15.5983ZM36.385 4.53849C37.3313 3.59219 38.6325 3.0599 39.8153 3.0599C41.4714 3.0599 42.8317 3.65132 43.778 4.59762C44.6651 5.54391 45.1383 6.78593 45.0791 8.26451C45.02 9.7431 44.5468 10.9851 43.6005 11.8722C42.6542 12.7594 41.2939 13.2326 39.8745 13.1734C36.8582 13.1143 34.8473 10.9851 34.8473 7.9688C34.7882 6.78593 35.3796 5.54393 36.385 4.53849Z" fill="#EF4F95"/>
<path d="M77.489 66.9347C77.3116 66.9939 77.1342 67.1121 76.9567 67.1713C76.0696 67.467 75.3599 68.0584 74.591 68.5907C73.349 69.537 72.8758 69.8327 72.4027 69.5962C71.5747 69.123 70.9241 67.8218 70.2735 66.5798C69.9778 65.9884 69.6821 65.3378 69.3272 64.7464C68.8541 63.9775 68.4401 63.2087 68.0261 62.4398C67.7895 62.0258 67.5529 61.6118 67.3164 61.1978C66.2518 59.3052 65.1281 57.4126 64.0635 55.4609C61.3429 50.7294 58.5632 45.8205 55.7834 41.0299C53.3585 36.8307 50.1648 35.4704 46.3205 36.8898C44.5462 37.5404 43.1859 37.363 41.3524 36.121C41.0567 35.9436 40.761 35.707 40.4653 35.5296C39.4007 34.8198 38.3361 34.051 37.1532 33.5187C36.3252 33.1638 36.2069 32.8681 36.1478 32.809C36.0887 32.6907 36.0887 32.2767 36.6801 31.3304L36.9167 30.9164C37.9812 29.2012 39.0458 27.3678 39.6964 25.2978C40.9976 20.9803 39.519 17.0768 35.9112 15.3025C32.0078 13.4691 27.8677 14.8294 25.5611 18.792C24.4966 20.5663 23.5503 22.4589 22.604 24.2923C21.776 25.8892 20.8888 27.5452 20.0017 29.1421C17.6359 33.3413 16.1573 37.4221 15.5068 41.6213C15.3293 42.745 15.1519 43.8688 14.9153 44.9925C14.5605 46.8259 14.2647 48.7777 14.0282 50.6703C13.8507 52.5037 13.2002 53.3317 11.485 53.9232C9.65156 54.5146 7.81812 55.3426 6.04382 56.0523C5.39324 56.348 4.68352 56.6438 4.03294 56.9395C0.602623 58.3589 -0.639388 60.6064 0.306906 63.5635C0.72091 64.8647 1.54892 65.811 2.67264 66.3433C4.09208 66.9939 5.86639 66.9939 7.75898 66.225C8.82356 65.811 9.82899 65.3378 10.8344 64.8647C12.313 64.155 13.7325 63.5044 15.211 63.0904C20.2974 61.6118 23.1363 58.4772 23.9643 53.3909C24.0234 52.9769 24.1417 52.5037 24.3191 52.0306L24.7923 52.5628C26.4483 54.3371 28.0452 55.9932 29.5829 57.6492C29.7012 57.7675 29.7012 57.8266 29.5829 58.4772C29.5829 58.5955 29.5237 58.7138 29.5237 58.8321C28.8732 63.0312 28.1634 67.5262 27.5129 72.5533C26.9214 76.6934 29.1097 78.1719 31.0615 78.7042C32.2443 79.0591 33.4864 78.8817 34.5509 78.2311C35.7929 77.4622 36.6801 76.0428 37.035 74.2094C37.3898 72.435 37.6264 70.6607 37.863 68.9456C38.1587 66.639 38.4544 64.3324 38.9867 62.085C40.1696 57.2943 39.105 53.036 35.8521 49.0142C35.0241 48.0088 34.1961 46.8851 33.4272 45.8205C32.7175 44.8742 32.0078 43.8688 31.2389 42.9225C30.5883 42.1536 30.7658 41.6805 31.7712 40.3793C31.8895 40.2019 32.0078 40.0836 32.1261 39.9062C32.2443 39.9653 32.3626 40.0836 32.4809 40.2019C32.7175 40.3793 32.9541 40.6159 33.2498 40.7933C34.3735 41.4439 35.5564 42.1536 36.6801 42.8634C37.5081 43.3956 38.3952 43.9279 39.2824 44.4602C40.1104 44.9334 42.7127 46.4711 45.2559 43.9871C46.7345 42.5085 47.8582 41.8579 48.6862 41.9762C49.5142 42.0945 50.4605 43.0999 51.5842 44.9925C54.5414 50.0788 57.4394 55.106 59.8643 59.4826C57.1437 58.8321 54.5414 59.0095 52.3531 60.0149C49.9874 61.0795 48.2722 63.0312 47.385 65.6927C46.557 68.1767 46.7345 70.8382 47.9173 73.2039C49.1594 75.6879 51.4068 77.6397 54.0682 78.4677C55.192 78.8225 56.2566 78.9999 57.262 78.9999C58.5632 78.9999 59.746 78.7042 60.8697 78.1128C63.1763 76.9299 65.0098 74.5642 66.4292 70.9565C67.0798 72.1393 67.7304 73.263 68.4401 74.3868C69.0315 75.4514 69.8004 76.0428 70.6875 76.2794C71.5747 76.4568 72.4619 76.2793 73.5264 75.6288C75.1233 74.5642 76.8976 73.5588 79.3225 72.3168C81.7474 71.0747 82.5754 69.5961 81.8065 67.9401C80.7419 65.5744 78.4945 66.5799 77.489 66.9347ZM78.1988 70.1876C75.7147 71.4888 73.8813 72.4942 72.2253 73.6179C71.8113 73.9136 71.4564 74.0319 71.2198 73.9728C71.0424 73.9136 70.7467 73.6179 70.5101 73.2039C69.8004 71.9619 69.0315 70.6607 68.3218 69.3596L65.8969 65.1604L65.1281 67.7627C63.8269 72.1393 62.0526 74.9191 59.8643 76.0428C58.4449 76.7525 56.848 76.8116 54.8963 76.2202C52.8262 75.5696 51.1111 74.0319 50.1648 72.1393C49.2776 70.3059 49.1002 68.295 49.7508 66.4615C50.4605 64.4507 51.7025 62.9721 53.4768 62.1441C54.4823 61.6709 55.606 61.4344 56.848 61.4344C58.2674 61.4344 59.746 61.7301 61.3429 62.3215L62.1118 62.6172L62.644 62.0258C63.472 61.1386 63.4129 60.1332 62.5258 59.0686C62.4666 59.0095 62.4075 58.9503 62.3483 58.8912C59.8052 54.3963 56.7888 49.1325 53.7134 43.8096C52.6488 42.0353 51.2294 39.9062 49.1002 39.6696C47.0302 39.3739 45.1376 40.9707 43.7182 42.331C42.7719 43.2773 42.003 43.2773 40.6427 42.4493C39.8147 41.9171 38.9275 41.3848 38.0995 40.9116C36.9758 40.2019 35.7929 39.4922 34.6101 38.7824C34.4918 38.7233 34.3144 38.605 34.1961 38.4276C33.6638 37.9545 32.9541 37.363 31.9486 37.4813C31.3572 37.5404 30.8249 37.8953 30.4109 38.5459C30.2926 38.7233 30.1743 38.8416 30.056 39.019C29.1689 40.2019 27.7494 42.0945 29.5829 44.4011C30.2926 45.2882 31.0023 46.2936 31.7121 47.2399C32.5401 48.3637 33.3089 49.4874 34.1961 50.552C36.9758 53.9823 37.863 57.5309 36.8575 61.6118C36.2661 63.9776 35.9704 66.4024 35.6747 68.709C35.4381 70.4242 35.2015 72.1393 34.9058 73.8545C34.6692 74.9782 34.1961 75.8654 33.4864 76.2794C33.0132 76.5751 32.4809 76.6342 31.8895 76.5159C30.5292 76.1611 29.7603 75.3922 30.056 72.9673C30.7658 67.9993 31.4163 63.5044 32.0669 59.3052C32.0669 59.1869 32.1261 59.0686 32.1261 59.0095C32.2443 58.2406 32.4809 57.1169 31.5346 56.1115C29.9969 54.4554 28.4 52.7994 26.744 51.0251L23.4911 47.5948L22.8997 49.4874C22.7223 49.9606 22.604 50.3745 22.4857 50.7885C22.19 51.6166 21.9534 52.3263 21.8351 53.0951C21.1845 57.2352 18.9962 59.7192 14.797 60.9021C13.141 61.3752 11.5442 62.085 10.0656 62.7947C9.11927 63.2678 8.11383 63.6818 7.1084 64.0958C5.80724 64.569 4.62437 64.6281 3.85551 64.2733C3.32322 64.0367 2.90922 63.5635 2.67264 62.9129C2.19949 61.4344 2.37692 60.3107 5.03838 59.2461C5.7481 58.9504 6.39868 58.6546 7.1084 58.3589C8.82355 57.6492 10.5979 56.8803 12.313 56.2889C14.9153 55.4609 16.2165 53.8049 16.4531 51.0251C16.6305 49.1917 16.9853 47.2991 17.2811 45.5248C17.4585 44.4011 17.6951 43.2774 17.8725 42.0945C18.4639 38.191 19.8242 34.3467 22.0717 30.4432C23.018 28.7872 23.9051 27.1312 24.7331 25.4752C25.6794 23.7009 26.6257 21.8674 27.6312 20.0931C29.2872 17.2543 32.1852 16.2488 34.9058 17.55C37.449 18.7329 38.3953 21.5126 37.449 24.7063C36.9167 26.4806 35.9112 28.0775 34.9058 29.7926L34.6692 30.2067C34.0778 31.1529 33.4864 32.3949 33.9004 33.637C34.1961 34.5241 34.9058 35.2338 36.2069 35.8253C37.2124 36.2984 38.1587 36.949 39.1641 37.5996C39.4598 37.777 39.7556 38.0136 40.0513 38.191C41.7664 39.3147 44.0139 40.3793 47.1485 39.1965C49.9282 38.191 51.8799 39.0782 53.7725 42.331C56.5523 47.1217 59.332 52.0306 62.0526 56.762C63.1172 58.6546 64.2409 60.6064 65.3055 62.499C65.5421 62.913 65.7786 63.327 66.0152 63.741C66.4292 64.5098 66.9024 65.3378 67.3755 66.1067C67.6712 66.5798 67.9669 67.1713 68.2627 67.7627C69.0907 69.3596 69.8595 71.0156 71.3973 71.8436C73.2899 72.9082 74.9459 71.607 76.1879 70.6607C76.7793 70.2467 77.3708 69.7736 77.903 69.5962C78.1396 69.537 78.3762 69.4187 78.6128 69.3005C78.9676 69.1822 79.5591 68.8864 79.7365 68.8864C79.7365 68.8864 79.7956 68.9456 79.7956 69.0047C79.7365 69.1822 79.2633 69.6553 78.1988 70.1876Z" fill="#EF4F95"/>
<path d="M57.0242 64.6282C55.7822 64.569 54.7768 64.9239 53.9488 65.6927C53.1208 66.4616 52.6476 67.5853 52.6476 68.9456C52.5293 72.4942 55.8414 72.8491 57.4382 73.0265C57.6157 73.0265 57.734 73.0265 57.8522 73.0265C60.0405 73.0265 60.632 71.1931 60.9277 70.1877C61.046 69.8328 61.1643 69.4779 61.2825 69.3005L61.5191 68.9456L61.46 68.5316C61.046 66.1067 59.4491 64.7464 57.0242 64.6282Z" fill="#EF4F95"/>
</svg>
