<svg width="134" height="64" viewBox="0 0 134 64" fill="none" xmlns="http://www.w3.org/2000/svg">
<path d="M117.807 30.0879V25.5464L117.769 19.3395C117.769 14.041 117.731 8.70469 117.731 3.40618C117.731 0.264925 117.466 0.0378459 114.282 0.0378459H99.8804C78.6568 0.0378459 56.6752 0.0378465 35.1106 0C33.0261 0 31.0175 0.0756941 29.0088 1.24893C23.7787 4.3145 18.397 7.41791 13.2048 10.4078C10.135 12.1866 7.06513 13.9653 3.95739 15.7441C1.87293 16.9552 0.660156 18.8475 0.660156 21.0048C0.660156 23.1242 1.87293 25.0544 3.95739 26.2654C6.34504 27.6279 8.6948 28.9904 11.0824 30.3529C16.4641 33.4563 22.0732 36.6732 27.4928 39.8902C29.9563 41.3662 32.4576 42.0474 35.3759 42.0474C35.4138 42.0474 35.4138 42.0474 35.4517 42.0474C62.8907 41.9339 89.9887 41.9717 115.381 42.0096C116.215 42.0096 116.821 41.9339 117.276 41.4797C117.731 40.9877 117.769 40.2686 117.769 39.7009C117.693 37.4301 117.731 35.1215 117.769 32.8886C117.769 31.9424 117.769 31.0341 117.807 30.0879ZM114.282 26.6818C114.282 27.7036 114.282 28.7633 114.282 29.7852C114.282 32.4723 114.32 35.2729 114.358 37.9978C114.358 38.4898 114.282 38.6034 114.244 38.6034C114.244 38.6034 114.131 38.6791 113.676 38.6412C113.373 38.6034 113.107 38.6034 112.804 38.6412C112.69 38.6412 112.577 38.6412 112.463 38.6412H101.813C78.96 38.6412 56.1447 38.6412 33.2914 38.6791C32.4576 38.6791 31.7375 38.4898 31.0554 38.1114C27.5686 36.1055 24.0819 34.0618 20.5952 32.0559C15.782 29.2553 10.7793 26.379 5.85235 23.5405C4.60168 22.8214 3.88159 21.8753 3.88159 20.9669C3.88159 20.0586 4.56378 19.1503 5.81445 18.4312C10.3245 15.8198 14.8345 13.2084 19.3445 10.6349C23.2481 8.43976 27.1138 6.20682 30.9417 3.97388C31.7754 3.48187 32.4197 3.29264 33.1398 3.29264C56.9026 3.33049 84.986 3.33049 113.259 3.33049C113.638 3.33049 114.093 3.33049 114.244 3.48187C114.32 3.55757 114.396 3.78465 114.396 4.35234C114.32 9.08315 114.32 13.9275 114.282 18.5826C114.282 20.2857 114.282 21.9509 114.282 23.654V26.6818Z" fill="black"/>
<path d="M104.692 20.8156C104.692 16.8418 104.692 12.8679 104.692 8.89399C104.692 8.28845 104.464 7.45583 105.525 7.68291C106.17 7.79645 107.079 7.56937 107.004 8.93184C106.776 13.587 107.079 18.2421 106.814 22.8972C106.625 26.2277 106.814 29.5582 107.004 32.8886C107.079 34.2133 106.397 34.2511 105.525 34.3268C104.275 34.4404 104.692 33.4942 104.692 32.8886C104.692 28.8769 104.692 24.8274 104.692 20.8156Z" fill="black"/>
<path d="M75.0555 18.9233C75.0555 15.5928 75.0555 12.2623 75.0555 8.93179C75.0555 8.25056 74.9039 7.41793 76.003 7.64501C76.723 7.7964 77.7463 7.41794 77.7463 8.89395C77.6705 15.6306 77.6326 22.3294 77.7084 29.0661C77.7084 30.6178 76.6093 30.0501 75.9651 30.2394C75.0934 30.5043 75.0176 29.7852 75.0176 29.104C75.0555 25.6978 75.0555 22.3294 75.0555 18.9233Z" fill="black"/>
<path d="M98.1369 18.9233C98.1369 15.5928 98.1369 12.2623 98.1369 8.9318C98.1369 8.17487 98.099 7.60718 99.1602 7.60718C100.183 7.60718 100.411 7.98564 100.411 8.9318C100.373 15.5928 100.373 22.2538 100.411 28.9147C100.411 29.7474 100.373 30.3151 99.236 30.3151C98.0232 30.3151 98.1369 29.6717 98.1748 28.8769C98.1748 25.5464 98.1369 22.2538 98.1369 18.9233Z" fill="black"/>
<path d="M67.1353 18.9611C67.1353 22.2916 67.1353 25.6221 67.1353 28.9904C67.1353 29.5203 67.5143 30.3907 66.3394 30.1258C65.6951 29.9744 64.8992 30.3907 64.8992 29.0661C64.975 22.2538 64.9371 15.4792 64.8613 8.66688C64.8613 7.79641 65.2024 7.64502 65.9604 7.64502C66.8321 7.64502 67.2111 7.83425 67.1732 8.78041C67.0974 12.1487 67.1353 15.5549 67.1353 18.9611Z" fill="black"/>
<path d="M18.5111 15.29C16.9951 15.29 15.5928 15.8955 14.4937 16.9552C13.3947 18.0528 12.8262 19.5288 12.8262 21.0805C12.8641 23.9568 15.3654 26.7574 17.9426 26.871C18.0184 26.871 18.0942 26.871 18.17 26.871C19.6859 26.871 21.2398 26.2654 22.3768 25.13C23.5138 24.0325 24.158 22.5565 24.158 21.0805C24.1959 17.9392 21.5809 15.29 18.5111 15.29ZM18.3974 23.7676C16.9572 23.7297 15.7444 22.443 15.7444 21.0048C15.7444 19.5666 16.9951 18.2798 18.4353 18.2798H18.4732C19.1553 18.2798 19.8754 18.5826 20.406 19.1125C20.9366 19.6423 21.2398 20.3614 21.2398 21.0426C21.2398 21.7617 20.8987 22.4808 20.3302 23.0107C19.7996 23.5027 19.0795 23.8054 18.3974 23.7676Z" fill="black"/>
<path d="M59.6692 18.9233C59.6692 15.5928 59.6692 12.2623 59.6692 8.93181C59.6692 8.43981 59.366 7.68288 60.3135 7.68288C61.1852 7.64503 61.2989 8.21273 61.2989 8.93181C61.2989 15.6685 61.2989 22.4052 61.2989 29.1418C61.2989 29.8231 61.1094 30.2394 60.3893 30.3151C59.4039 30.3908 59.6692 29.6717 59.6692 29.1797C59.7071 25.7356 59.7071 22.3295 59.6692 18.9233Z" fill="black"/>
<path d="M50.0416 21.0048C50.0416 24.9787 50.0416 28.9526 50.0416 32.8886C50.0416 33.4185 50.4585 34.3268 49.3973 34.3268C48.374 34.3268 48.7151 33.4563 48.7151 32.8886C48.7151 24.9409 48.7151 17.0309 48.7151 9.08319C48.7151 8.51549 48.3361 7.64502 49.3594 7.64502C50.4206 7.64502 50.0037 8.55334 50.0037 9.08319C50.0416 13.0571 50.0416 17.0309 50.0416 21.0048Z" fill="black"/>
<path d="M53.528 30.1258C53.528 22.935 53.528 15.8199 53.528 8.74257C53.528 8.17487 53.4143 7.60718 54.3239 7.60718C55.2335 7.60718 55.1198 8.17487 55.1198 8.74257C55.1198 15.4036 55.0819 22.0645 55.1198 28.7255C55.1198 29.7474 54.665 30.0501 53.528 30.1258Z" fill="black"/>
<path d="M91.1262 18.8854C91.1262 21.8374 91.1641 24.7895 91.0883 27.7415C91.0883 28.4984 91.5431 29.8987 90.5956 29.9744C89.1555 30.0501 89.7619 28.5741 89.724 27.7793C89.6482 25.0922 89.724 22.3673 89.724 19.6802C89.724 16.0848 89.724 12.5272 89.724 8.93179C89.724 8.43979 89.4208 7.72071 90.3682 7.68286C91.3536 7.68286 91.0504 8.40194 91.0504 8.89395C91.1262 12.1866 91.1262 15.5549 91.1262 18.8854Z" fill="black"/>
<path d="M102.911 20.5885C102.948 23.7297 103.176 26.9089 102.835 30.315C102.228 29.5203 102.418 28.8769 102.418 28.2713C102.38 21.9131 102.38 15.5549 102.418 9.23456C102.418 8.66686 101.925 7.7207 103.327 7.79639C104.692 7.87209 104.048 8.74256 104.048 9.23456C104.085 15.5171 104.085 21.7996 104.085 28.1199C104.085 28.7633 104.275 29.4824 103.441 30.1258C103.441 26.9467 103.441 23.8054 103.441 20.6263C103.29 20.5885 103.1 20.5885 102.911 20.5885Z" fill="black"/>
<path d="M72.82 19.0747C72.82 22.4808 72.82 25.887 72.82 29.2932C72.82 29.7095 72.9716 30.3151 72.2894 30.2394C71.7968 30.2015 71.8347 29.7095 71.8347 29.331C71.8347 22.4051 71.8347 15.4792 71.8347 8.51549C71.8347 8.13702 71.7968 7.68287 72.3273 7.64502C73.0853 7.64502 72.7821 8.25057 72.7821 8.62903C72.82 12.1109 72.82 15.5928 72.82 19.0747Z" fill="black"/>
<path d="M101.244 30.2772C101.244 22.7457 101.244 15.2143 101.244 7.7207C101.358 7.7207 101.509 7.7207 101.623 7.7207C101.623 15.2143 101.623 22.7079 101.623 30.2015C101.509 30.2015 101.358 30.2393 101.244 30.2772Z" fill="black"/>
<path d="M88.3213 18.9233C88.3213 22.3295 88.3213 25.7357 88.3213 29.1418C88.3213 29.596 88.5108 30.3151 87.7528 30.2772C86.9948 30.2394 87.2222 29.5582 87.2222 29.104C87.4117 22.8972 86.9569 16.6525 87.3738 10.4078C87.4117 9.84015 87.2601 9.23461 87.2601 8.66691C87.2601 8.32629 86.8811 7.72075 87.677 7.6829C88.5108 7.64506 88.2834 8.2506 88.2834 8.7426C88.2834 12.1488 88.2834 15.555 88.2834 18.9233C88.3213 18.9233 88.3213 18.9233 88.3213 18.9233Z" fill="black"/>
<path d="M96.242 18.9611C96.242 15.6306 96.242 12.3001 96.2799 8.96964C96.2799 8.51548 95.9009 7.68286 96.8484 7.68286C97.6064 7.72071 97.4169 8.40194 97.4169 8.8561C97.4169 15.5928 97.379 22.3294 97.379 29.0661C97.379 29.5203 97.6443 30.2393 96.8863 30.2393C95.9388 30.2772 96.3557 29.4446 96.3557 28.9526C96.3178 25.6221 96.3557 22.2916 96.3557 18.9611C96.2799 18.9611 96.2799 18.9611 96.242 18.9611Z" fill="black"/>
<path d="M63.0052 18.9232C63.0052 15.5927 63.0052 12.2622 63.0052 8.93176C63.0052 8.51545 62.702 7.79637 63.46 7.72068C64.2559 7.64498 64.0664 8.36407 64.0664 8.81822C64.0664 15.6306 64.0664 22.4051 64.0285 29.2175C64.0285 29.6338 64.218 30.2393 63.6116 30.2772C62.8536 30.315 63.0431 29.6338 63.0431 29.1796C63.0431 25.6977 63.0431 22.3294 63.0052 18.9232C63.0431 18.9232 63.0431 18.9232 63.0052 18.9232Z" fill="black"/>
<path d="M83.8858 7.90997C84.7954 7.90997 84.947 8.32628 84.947 9.08321C84.947 15.7063 84.947 22.3295 84.9849 28.9148C84.9849 29.4446 84.9091 30.1637 84.4164 30.1637C83.5826 30.1258 83.8858 29.2932 83.8858 28.8012C83.8858 21.9132 83.8858 14.9873 83.8858 7.90997Z" fill="black"/>
<path d="M79.9063 18.8476C79.9063 15.5171 79.9063 12.1866 79.9063 8.8561C79.9063 8.43979 79.6031 7.7207 80.399 7.7207C81.0812 7.7207 80.8159 8.36409 80.8159 8.74256C80.8159 15.5928 80.8159 22.4051 80.8159 29.2553C80.8159 29.6338 81.0054 30.2772 80.3232 30.2393C79.6789 30.2015 79.9063 29.596 79.9063 29.1796C79.9063 25.7356 79.9063 22.2916 79.9063 18.8476Z" fill="black"/>
<path d="M52.7716 7.79639C52.7716 15.2521 52.7716 22.7079 52.7716 30.1636C52.6579 30.1636 52.5442 30.1636 52.3926 30.1636C52.3926 22.7079 52.3926 15.2143 52.3926 7.75854C52.5442 7.79639 52.6579 7.79639 52.7716 7.79639Z" fill="black"/>
<path d="M50.6484 34.3268C50.6484 25.4707 50.6484 16.5768 50.6484 7.7207C50.8 7.7207 50.9137 7.7207 51.0653 7.7207C51.0653 16.5768 51.0653 25.4707 51.0653 34.3268C50.9137 34.3268 50.8 34.3268 50.6484 34.3268Z" fill="black"/>
<path d="M68.1571 34.8945C68.2827 34.8945 68.3845 27.7778 68.3845 18.999C68.3845 10.2201 68.2827 3.10345 68.1571 3.10345C68.0315 3.10345 67.9297 10.2201 67.9297 18.999C67.9297 27.7778 68.0315 34.8945 68.1571 34.8945Z" fill="black"/>
<path d="M58.5329 7.83423C58.5329 15.2521 58.5329 22.67 58.5329 30.088C58.4571 30.088 58.3434 30.088 58.2676 30.088C58.2676 22.67 58.2676 15.2143 58.2676 7.79639C58.3434 7.83423 58.4192 7.83423 58.5329 7.83423Z" fill="black"/>
<path d="M82.9395 30.1258C82.9395 22.7079 82.9395 15.29 82.9395 7.87207C83.0532 7.87207 83.1289 7.87207 83.2426 7.87207C83.2426 15.29 83.2426 22.7457 83.2426 30.1636C83.1289 30.1636 83.0153 30.1258 82.9395 30.1258Z" fill="black"/>
<path d="M78.3535 30.1637C78.3535 22.6701 78.3535 15.2143 78.3535 7.7207C78.4672 7.7207 78.5809 7.7207 78.6567 7.7207C78.6567 15.2143 78.6567 22.6701 78.6567 30.1637C78.5809 30.1637 78.4672 30.1637 78.3535 30.1637Z" fill="black"/>
<path d="M74.2212 7.87207C74.2212 15.2143 74.2212 22.5186 74.2212 29.8609C74.1075 29.8609 74.0317 29.8609 73.918 29.8609C73.918 22.5186 73.918 15.2143 73.918 7.87207C73.9938 7.87207 74.1075 7.87207 74.2212 7.87207Z" fill="black"/>
<path d="M86.5392 7.75854C86.5392 15.2143 86.5392 22.6701 86.5392 30.1258C86.4255 30.1258 86.2739 30.1258 86.1602 30.1258C86.1602 22.6701 86.1602 15.2521 86.1602 7.79639C86.2739 7.75854 86.4255 7.75854 86.5392 7.75854Z" fill="black"/>
<path d="M70.6981 7.75855C70.6981 15.2143 70.6981 22.7079 70.6981 30.1637C70.5465 30.1637 70.4328 30.1637 70.2812 30.1637C70.2812 22.6701 70.2812 15.2143 70.2812 7.7207C70.4328 7.7207 70.5465 7.75855 70.6981 7.75855Z" fill="black"/>
<path d="M69.334 29.823C69.334 22.4808 69.334 15.1764 69.334 7.83423C69.4098 7.83423 69.4856 7.83423 69.5614 7.83423C69.5614 15.1764 69.5614 22.4808 69.5614 29.823C69.4856 29.823 69.4098 29.823 69.334 29.823Z" fill="black"/>
<path d="M107.611 8.09919C107.611 16.6903 107.611 25.2815 107.611 33.9105C107.573 33.9105 107.497 33.9105 107.459 33.9105C107.459 25.2815 107.459 16.6525 107.459 8.0235C107.497 8.06134 107.535 8.06135 107.611 8.09919Z" fill="black"/>
<path d="M56.068 7.94782C56.068 15.29 56.068 22.6322 56.068 30.0123C55.9922 30.0123 55.8785 30.0123 55.8027 30.0123C55.8027 22.6322 55.8027 15.29 55.8027 7.90997C55.9164 7.90997 55.9922 7.90997 56.068 7.94782Z" fill="black"/>
<path d="M56.6738 29.7852C56.6738 22.5187 56.6738 15.2522 56.6738 7.98566C56.7496 7.98566 56.7875 7.98566 56.8633 7.98566C56.8633 15.2522 56.8633 22.5187 56.8633 29.7852C56.8254 29.7852 56.7496 29.7852 56.6738 29.7852Z" fill="black"/>
<path d="M81.4594 8.17487C81.4594 15.3657 81.4594 22.5565 81.4594 29.7474C81.4215 29.7474 81.3836 29.7474 81.3457 29.7474C81.3457 22.5565 81.3457 15.3657 81.3457 8.17487C81.3457 8.17487 81.3836 8.17487 81.4594 8.17487Z" fill="black"/>
<path d="M92.4125 8.13702C92.4125 15.3657 92.4125 22.5565 92.4125 29.7852C92.3746 29.7852 92.3367 29.7852 92.2988 29.7852C92.2988 22.5944 92.2988 15.3657 92.2988 8.17487C92.3367 8.17487 92.3746 8.13702 92.4125 8.13702Z" fill="black"/>
<path d="M93.5129 34.5538C93.5967 34.5538 93.6645 27.5727 93.6645 18.9611C93.6645 10.3495 93.5967 3.36835 93.5129 3.36835C93.4292 3.36835 93.3613 10.3495 93.3613 18.9611C93.3613 27.5727 93.4292 34.5538 93.5129 34.5538Z" fill="black"/>
<path d="M94.611 34.0618C94.6528 34.0618 94.6868 27.2671 94.6868 18.8854C94.6868 10.5037 94.6528 3.70898 94.611 3.70898C94.5691 3.70898 94.5352 10.5037 94.5352 18.8854C94.5352 27.2671 94.5691 34.0618 94.611 34.0618Z" fill="black"/>
<path d="M95.409 33.9861C95.4299 33.9861 95.4469 27.2253 95.4469 18.8854C95.4469 10.5455 95.4299 3.78467 95.409 3.78467C95.3881 3.78467 95.3711 10.5455 95.3711 18.8854C95.3711 27.2253 95.3881 33.9861 95.409 33.9861Z" fill="black"/>
<path d="M62.2848 7.83423C62.2848 15.2143 62.2848 22.5944 62.2848 29.9366C62.209 29.9366 62.0953 29.9366 62.0195 29.9366C62.0195 22.5565 62.0195 15.2143 62.0195 7.83423C62.0953 7.87207 62.1711 7.83423 62.2848 7.83423Z" fill="black"/>
<circle cx="111.798" cy="41.1692" r="20.6692" fill="white" stroke="#D13292" stroke-width="3"/>
<path d="M113.793 34.9196V49.236H110.717V38.3961C110.548 38.5459 110.346 38.6891 110.111 38.8258C109.883 38.956 109.639 39.0765 109.379 39.1871C109.118 39.2913 108.848 39.3824 108.568 39.4606C108.288 39.5322 108.012 39.5843 107.738 39.6168V37.0192C108.539 36.7848 109.294 36.4853 110.004 36.1207C110.714 35.7561 111.355 35.3558 111.928 34.9196H113.793Z" fill="#D13292"/>
</svg>
