<svg width="118" height="64" viewBox="0 0 118 64" fill="none" xmlns="http://www.w3.org/2000/svg">
<path d="M90.8965 37.8092C89.0773 39.2474 87.0686 39.6637 84.7189 39.6637C58.7579 39.588 32.8348 39.6258 6.87382 39.6258C1.53003 39.6258 0.809952 38.9068 0.772053 33.7596C0.734154 24.4873 0.885746 15.177 0.69625 5.90464C0.620451 1.74153 2.02273 -0.0372557 6.41904 0.000590711C32.6832 0.11413 58.9095 0.0762836 85.1737 0.000590711C87.4097 0.000590711 89.191 0.643981 90.8965 1.85507C90.8965 13.8145 90.8965 25.8119 90.8965 37.8092ZM45.3795 35.9926C58.3031 35.9926 71.1888 35.9169 84.1125 36.0683C86.6517 36.1061 87.3718 35.4249 87.3339 32.8513C87.1823 24.1466 87.1823 15.4419 87.3339 6.77511C87.3718 4.23939 86.6517 3.55816 84.1125 3.55816C58.6063 3.63385 33.0622 3.63385 7.55602 3.55816C5.01677 3.55816 4.29668 4.20155 4.33458 6.77511C4.48618 15.3284 4.52408 23.8817 4.33458 32.3972C4.25878 35.3492 5.05466 36.1061 8.0108 36.0683C20.4418 35.9169 32.9106 35.9926 45.3795 35.9926Z" fill="black"/>
<path d="M20.5952 19.7564C20.5952 21.9893 20.5952 24.2601 20.5952 26.493C20.5952 27.7041 20.7847 28.8395 18.8897 28.8395C17.1084 28.8774 16.9568 28.0069 16.9947 26.6444C17.0705 24.8656 17.0326 23.049 16.9947 21.2324C16.9568 18.5831 17.9043 15.177 13.0911 16.1231C12.5226 16.2367 11.8026 15.9717 11.9163 15.2148C11.9921 14.685 12.2573 14.1551 12.5605 13.7009C12.6742 13.5117 13.129 13.5874 13.3943 13.4739C20.5952 10.5218 20.5952 10.484 20.5952 19.7564Z" fill="black"/>
<path d="M31.1299 21.5352C33.6313 21.9137 35.0335 23.1248 34.9577 25.3577C34.8819 27.3636 33.5934 28.6882 31.5847 28.7639C29.3487 28.8396 27.9085 27.5528 27.8327 25.282C27.7948 22.9734 29.3866 21.9894 31.1299 21.5352Z" fill="black"/>
<path d="M46.0616 21.5731C48.2218 22.0272 49.5862 23.2762 49.3967 25.5091C49.2451 27.4771 47.8808 28.8017 45.8721 28.7639C43.636 28.726 42.2338 27.4014 42.3096 25.1306C42.3475 22.8598 43.8255 21.7623 46.0616 21.5731Z" fill="black"/>
<circle cx="95.179" cy="41.1692" r="20.6692" fill="white" stroke="#D13292" stroke-width="3"/>
<path d="M94.2402 45.6774H100.178V48.236H90.8613V47.1813C90.8613 46.4651 90.9818 45.8239 91.2227 45.2574C91.4635 44.6845 91.7663 44.1735 92.1309 43.7242C92.4954 43.2685 92.8926 42.8681 93.3223 42.5231C93.7585 42.1715 94.1719 41.8558 94.5625 41.5758C94.9727 41.2828 95.3307 41.0029 95.6367 40.736C95.9492 40.469 96.2096 40.2054 96.418 39.9449C96.6328 39.678 96.7923 39.4111 96.8965 39.1442C97.0007 38.8707 97.0527 38.581 97.0527 38.275C97.0527 37.6761 96.8835 37.2236 96.5449 36.9176C96.2064 36.6116 95.6888 36.4586 94.9922 36.4586C93.7878 36.4586 92.6354 36.9371 91.5352 37.8942V35.1793C92.7526 34.3916 94.1263 33.9977 95.6562 33.9977C96.3659 33.9977 97.0007 34.0921 97.5605 34.2809C98.127 34.4632 98.6055 34.7268 98.9961 35.0719C99.3867 35.417 99.6829 35.8369 99.8848 36.3317C100.093 36.8199 100.197 37.3668 100.197 37.9723C100.197 38.6168 100.096 39.1897 99.8945 39.691C99.6992 40.1923 99.4355 40.6481 99.1035 41.0582C98.778 41.4684 98.4004 41.846 97.9707 42.191C97.541 42.5296 97.0951 42.8584 96.6328 43.1774C96.3203 43.3987 96.0176 43.6201 95.7246 43.8414C95.4382 44.0563 95.1842 44.2711 94.9629 44.486C94.7415 44.6943 94.5658 44.8994 94.4355 45.1012C94.3053 45.303 94.2402 45.4951 94.2402 45.6774Z" fill="#D13292"/>
</svg>
