<svg width="115" height="100" viewBox="0 0 115 100" fill="none" xmlns="http://www.w3.org/2000/svg">
<g clip-path="url(#clip0_456_77)">
<path d="M98.49 26.3643C97.6883 26.3883 97.0703 27.0877 97.0703 27.8899V40.3393C97.0703 43.3057 94.6656 45.7104 91.6992 45.7104H56.973C57.0213 42.811 54.5285 40.2516 51.5211 40.2481C48.6023 40.225 46.0488 42.7207 46.0691 45.7104H8.30078C5.33438 45.7104 2.92969 43.3057 2.92969 40.3393V18.8549C2.92969 15.8885 5.33438 13.4838 8.30078 13.4838H21.5023C22.3045 13.4838 23.0039 12.8659 23.0279 12.0641C23.0529 11.2346 22.3877 10.5541 21.5637 10.5541H8.30078C3.71641 10.5541 0 14.2705 0 18.8549V40.3393C0 44.9237 3.71641 48.6401 8.30078 48.6401H46.0693V58.8047H45.352C41.8377 58.8047 38.9785 61.6817 38.9785 65.218V70.6784C38.9785 75.3403 41.2094 79.7653 44.9461 82.5157C46.6375 83.5502 48.2352 85.618 48.3713 87.5707C48.4613 88.6397 49.3344 89.4457 50.4018 89.4457H74.0002C75.1205 89.4457 76.0717 88.5293 76.0715 87.409C76.0711 85.3922 76.6854 83.459 77.8473 81.8184C79.4561 79.62 80.2937 76.5485 80.1619 73.7061C80.1619 72.8971 79.5061 72.2412 78.6971 72.2412C77.8881 72.2412 77.2322 72.8971 77.2322 73.7061C77.3592 75.7973 76.7826 78.2877 75.4564 80.125C74.1143 82.02 73.333 84.2135 73.1727 86.5161H51.1795C50.7883 84.1571 48.9236 81.6047 46.6828 80.1561C43.6932 77.9555 41.9082 74.4123 41.9082 70.6782V65.2178C41.9082 63.2969 43.4531 61.7342 45.352 61.7342H46.0693V70.5018C46.0693 71.3039 46.6873 72.0034 47.4891 72.0274C48.3186 72.0524 48.999 71.3871 48.999 70.5631V45.6659C48.999 44.294 50.1305 43.1778 51.5213 43.1778C52.9121 43.1778 54.0436 44.294 54.0436 45.6659V65.0873C54.0436 65.8895 54.6615 66.5889 55.4633 66.6129C56.2928 66.6379 56.9732 65.9727 56.9732 65.1487V59.4289C56.9582 58.3461 57.9629 56.9627 59.3557 56.9752C60.7465 56.9752 61.8779 58.0912 61.8779 59.4653C61.8781 60.8284 61.8926 63.7483 61.8961 65.1535C61.8988 65.9606 62.5537 66.6135 63.3609 66.6135H63.3658C64.174 66.6135 64.8285 65.9569 64.8258 65.1487L64.8145 61.7608C64.842 60.4123 65.9605 59.3233 67.334 59.3233C68.7248 59.3233 69.8562 60.4393 69.8562 61.8112V65.1116C69.8562 65.9137 70.4742 66.6131 71.276 66.6371C72.1055 66.6621 72.7859 65.9969 72.7859 65.1729V64.2198C72.7732 63.2655 73.6572 62.0442 74.8855 62.0575C76.1797 62.0575 77.2326 63.1221 77.2326 64.4307V66.6879C77.2326 67.4901 77.8506 68.1895 78.6523 68.2135C79.4818 68.2385 80.1623 67.5733 80.1623 66.7493V64.4305C80.1623 61.5065 77.7951 59.1276 74.8855 59.1276C73.9951 59.1276 73.1395 59.3604 72.3836 59.7715C71.5711 57.7922 69.6145 56.3932 67.334 56.3932C66.2316 56.3932 65.2045 56.7201 64.3457 57.2813C63.4996 55.3772 61.5812 54.0453 59.3557 54.0453C58.5102 54.0453 57.6996 54.2403 56.9732 54.592V48.6395H91.6992C96.2836 48.6395 100 44.9231 100 40.3387V27.8278C100 27.0045 99.3197 26.3393 98.49 26.3643Z" fill="black"/>
<path d="M91.6991 10.5541H28.5067C27.7046 10.5541 27.0052 11.1721 26.9812 11.9739C26.9562 12.8034 27.6214 13.4838 28.4454 13.4838H91.6991C94.6655 13.4838 97.0702 15.8885 97.0702 18.8549V20.8356C97.0702 21.6377 97.6882 22.3371 98.4899 22.3612C99.3194 22.3862 99.9999 21.7209 99.9999 20.8969V18.8549C99.9999 14.2705 96.2835 10.5541 91.6991 10.5541Z" fill="black"/>
</g>
<circle cx="92.3821" cy="59.1692" r="20.6692" fill="white" stroke="#D13292" stroke-width="3"/>
<path d="M88.3945 65.777V63.0914C89.332 63.775 90.4258 64.1168 91.6758 64.1168C92.4635 64.1168 93.0755 63.9476 93.5117 63.609C93.9544 63.2705 94.1758 62.7985 94.1758 62.193C94.1758 61.568 93.9023 61.0862 93.3555 60.7477C92.8151 60.4091 92.0697 60.2399 91.1191 60.2399H89.8203V57.8766H91.0215C92.8444 57.8766 93.7559 57.2711 93.7559 56.0602C93.7559 54.9209 93.056 54.3512 91.6562 54.3512C90.7188 54.3512 89.8073 54.6539 88.9219 55.2594V52.7399C89.9049 52.2451 91.0508 51.9977 92.3594 51.9977C93.7917 51.9977 94.9049 52.3199 95.6992 52.9645C96.5 53.609 96.9004 54.4456 96.9004 55.4742C96.9004 57.3037 95.9727 58.4495 94.1172 58.9117V58.9606C95.1068 59.0843 95.888 59.4456 96.4609 60.0446C97.0339 60.637 97.3203 61.3662 97.3203 62.2321C97.3203 63.5406 96.8418 64.5758 95.8848 65.3375C94.9277 66.0992 93.6061 66.4801 91.9199 66.4801C90.4746 66.4801 89.2995 66.2457 88.3945 65.777Z" fill="#D13292"/>
<defs>
<clipPath id="clip0_456_77">
<rect width="100" height="100" fill="white"/>
</clipPath>
</defs>
</svg>
